<?xml version="1.0" encoding="UTF-8"?>
<svg version="1.1" xmlns="http://www.w3.org/2000/svg" width="256" height="144">
<path d="M0 0 C84.48 0 168.96 0 256 0 C256 47.52 256 95.04 256 144 C171.52 144 87.04 144 0 144 C0 96.48 0 48.96 0 0 Z " fill="#F9FAFA" transform="translate(0,0)"/>
<path d="M0 0 C0.495 8.415 0.495 8.415 1 17 C2.32 15.35 3.64 13.7 5 12 C4.34 12 3.68 12 3 12 C3 11.34 3 10.68 3 10 C5.97 10 8.94 10 12 10 C12 10.66 12 11.32 12 12 C10.03852126 13.38938077 8.03833424 14.7260411 6 16 C6.50731629 20.39674114 9.11914055 22.83808109 12 26 C12.66 26.33 13.32 26.66 14 27 C13.95359375 26.10796875 13.9071875 25.2159375 13.859375 24.296875 C13.82328125 23.12640625 13.7871875 21.9559375 13.75 20.75 C13.70359375 19.58984375 13.6571875 18.4296875 13.609375 17.234375 C14 14 14 14 15.7265625 11.60546875 C18.29183133 9.79391292 19.52097268 9.48463978 22.625 9.5625 C23.40101562 9.56378906 24.17703125 9.56507812 24.9765625 9.56640625 C27 10 27 10 29 13 C29.598125 11.88625 30.19625 10.7725 30.8125 9.625 C32.37695617 6.71187472 33.09907498 5.93395001 36 4 C38.6640625 3.76953125 38.6640625 3.76953125 41.625 3.8125 C42.60726562 3.81894531 43.58953125 3.82539062 44.6015625 3.83203125 C47 4 47 4 48 5 C48.04080783 6.99958364 48.04254356 9.00045254 48 11 C47.01 11 46.02 11 45 11 C44.505 9.02 44.505 9.02 44 7 C41.08347826 6.83318891 41.08347826 6.83318891 38 7 C35.31874409 9.68125591 35.70119346 11.14124916 35.6875 14.875 C35.66236328 16.44894531 35.66236328 16.44894531 35.63671875 18.0546875 C36.04135684 21.33530168 36.63148605 22.71860381 39 25 C42.75684104 25.33543224 45.41996227 25.19334591 49 24 C49.28875 23.360625 49.5775 22.72125 49.875 22.0625 C51 20 51 20 53.375 18.75 C56 18 56 18 60 18 C59.67 16.35 59.34 14.7 59 13 C57.68 13 56.36 13 55 13 C54.67 13.99 54.34 14.98 54 16 C52.68 16 51.36 16 50 16 C50.3125 14.125 50.3125 14.125 51 12 C55.06849409 9.28767061 57.16476784 9.69300113 62 10 C64 12 64 12 64.1953125 15.2578125 C64.17210937 16.53398438 64.14890625 17.81015625 64.125 19.125 C64.10695312 20.40632813 64.08890625 21.68765625 64.0703125 23.0078125 C64.04710937 23.99523437 64.02390625 24.98265625 64 26 C66.31 26.33 68.62 26.66 71 27 C71 22.38 71 17.76 71 13 C70.34 13 69.68 13 69 13 C69 12.34 69 11.68 69 11 C70.98 10.67 72.96 10.34 75 10 C75.33 10.66 75.66 11.32 76 12 C76.66 11.34 77.32 10.68 78 10 C80.625 9.875 80.625 9.875 83 10 C83 11.32 83 12.64 83 14 C80.69 14.66 78.38 15.32 76 16 C76 19.3 76 22.6 76 26 C76.99 26.33 77.98 26.66 79 27 C78.01 30.465 78.01 30.465 77 34 C75.96101562 33.9278125 74.92203125 33.855625 73.8515625 33.78125 C72.44275811 33.68675496 71.03390002 33.59305833 69.625 33.5 C68.89780762 33.45157959 68.17061523 33.40315918 67.42138672 33.35327148 C62.53743422 33.04633277 57.71323093 32.9528292 52.8203125 33.16015625 C51 33 51 33 49 31 C49 29.68 49 28.36 49 27 C45.04 28.98 45.04 28.98 41 31 C41 31.33 41 31.66 41 32 C35.97745369 32.2954439 33.10457614 31.98514628 29 29 C28.01 30.485 28.01 30.485 27 32 C24.2937563 32.90208123 22.76149014 33.12227599 19.98754883 33.11352539 C19.18694534 33.11344986 18.38634186 33.11337433 17.56147766 33.11329651 C16.70201035 33.10813522 15.84254303 33.10297394 14.95703125 33.09765625 C14.0734343 33.0962413 13.18983734 33.09482635 12.27946472 33.09336853 C9.45710872 33.08777069 6.63483203 33.07521861 3.8125 33.0625 C1.89908969 33.05748472 -0.01432187 33.05292186 -1.92773438 33.04882812 C-6.61852014 33.03780197 -11.30924663 33.02053883 -16 33 C-16.66 31.02 -17.32 29.04 -18 27 C-17.34 27 -16.68 27 -16 27 C-16.33 22.71 -16.66 18.42 -17 14 C-18.98 14 -20.96 14 -23 14 C-23 18.29 -23 22.58 -23 27 C-22.34 27 -21.68 27 -21 27 C-21.33 28.98 -21.66 30.96 -22 33 C-24.41674224 33.02705308 -26.8331794 33.04686438 -29.25 33.0625 C-30.27287109 33.07506836 -30.27287109 33.07506836 -31.31640625 33.08789062 C-34.72727395 33.10444824 -37.71738228 32.89735111 -41 32 C-41.825 32.20625 -42.65 32.4125 -43.5 32.625 C-46 33 -46 33 -48.3125 31.5625 C-48.869375 31.046875 -49.42625 30.53125 -50 30 C-52.6905528 31.22007944 -52.6905528 31.22007944 -55 33 C-57.86267567 33.07325168 -60.700719 33.09238205 -63.5625 33.0625 C-64.36880859 33.05798828 -65.17511719 33.05347656 -66.00585938 33.04882812 C-68.00393756 33.03700518 -70.00197783 33.01906914 -72 33 C-72.66 31.02 -73.32 29.04 -74 27 C-73.01 27 -72.02 27 -71 27 C-71 19.41 -71 11.82 -71 4 C-71.99 4 -72.98 4 -74 4 C-74 3.34 -74 2.68 -74 2 C-71.43635517 1.89154969 -68.87733721 1.81250256 -66.3125 1.75 C-65.59126953 1.71648438 -64.87003906 1.68296875 -64.12695312 1.6484375 C-60.38021261 1.58000388 -58.3735385 1.79362243 -55.0234375 3.64453125 C-52.5115541 6.56859629 -52.37502676 8.12336773 -52.3125 11.9375 C-52.21196309 16.12301011 -51.76476279 19.1822064 -50 23 C-49.484375 22.360625 -48.96875 21.72125 -48.4375 21.0625 C-45.34064377 18.44208319 -42.97932377 18.30610183 -39 18 C-39.33 16.35 -39.66 14.7 -40 13 C-41.32 13 -42.64 13 -44 13 C-44.33 13.99 -44.66 14.98 -45 16 C-45.99 16 -46.98 16 -48 16 C-48 14.68 -48 13.36 -48 12 C-45.03082597 10.02055064 -44.34297721 9.70649419 -41 9.6875 C-40.319375 9.67074219 -39.63875 9.65398438 -38.9375 9.63671875 C-37 10 -37 10 -35.26171875 11.1015625 C-33.37134941 13.94589532 -33.71245059 16.31916979 -33.8125 19.6875 C-33.85310547 21.45673828 -33.85310547 21.45673828 -33.89453125 23.26171875 C-33.92933594 24.16535156 -33.96414062 25.06898437 -34 26 C-32.02 26.33 -30.04 26.66 -28 27 C-28 22.38 -28 17.76 -28 13 C-28.66 13 -29.32 13 -30 13 C-30 12.34 -30 11.68 -30 11 C-23.25 10 -23.25 10 -21 10 C-19.865625 9.938125 -18.73125 9.87625 -17.5625 9.8125 C-14 10 -14 10 -12.2890625 11.0625 C-10.30535598 14.04407102 -10.71546072 16.66173963 -10.8125 20.1875 C-10.85310547 22.09595703 -10.85310547 22.09595703 -10.89453125 24.04296875 C-10.92933594 25.01878906 -10.96414062 25.99460937 -11 27 C-9.02 27 -7.04 27 -5 27 C-5 19.08 -5 11.16 -5 3 C-5.66 3 -6.32 3 -7 3 C-7 2.34 -7 1.68 -7 1 C-4.50935112 0.31292445 -2.62113708 0 0 0 Z " fill="#BCC1C4" transform="translate(88,43)"/>
<path d="M0 0 C2.56364483 -0.10845031 5.12266279 -0.18749744 7.6875 -0.25 C8.40873047 -0.28351562 9.12996094 -0.31703125 9.87304688 -0.3515625 C13.61978739 -0.41999612 15.6264615 -0.20637757 18.9765625 1.64453125 C21.4884459 4.56859629 21.62497324 6.12336773 21.6875 9.9375 C21.78803691 14.12301011 22.23523721 17.1822064 24 21 C24.515625 20.360625 25.03125 19.72125 25.5625 19.0625 C28.65935623 16.44208319 31.02067623 16.30610183 35 16 C34.505 13.525 34.505 13.525 34 11 C32.68 11 31.36 11 30 11 C29.67 11.99 29.34 12.98 29 14 C28.01 14 27.02 14 26 14 C26 12.68 26 11.36 26 10 C28.96917403 8.02055064 29.65702279 7.70649419 33 7.6875 C33.680625 7.67074219 34.36125 7.65398438 35.0625 7.63671875 C37 8 37 8 38.73828125 9.1015625 C40.62865059 11.94589532 40.28754941 14.31916979 40.1875 17.6875 C40.14689453 19.45673828 40.14689453 19.45673828 40.10546875 21.26171875 C40.07066406 22.16535156 40.03585938 23.06898437 40 24 C41.98 24.33 43.96 24.66 46 25 C46 20.38 46 15.76 46 11 C45.34 11 44.68 11 44 11 C44 10.34 44 9.68 44 9 C50.75 8 50.75 8 53 8 C54.134375 7.938125 55.26875 7.87625 56.4375 7.8125 C60 8 60 8 61.7109375 9.0625 C63.69464402 12.04407102 63.28453928 14.66173963 63.1875 18.1875 C63.14689453 20.09595703 63.14689453 20.09595703 63.10546875 22.04296875 C63.07066406 23.01878906 63.03585938 23.99460937 63 25 C63.66 25 64.32 25 65 25 C65 25.66 65 26.32 65 27 C62.03 27 59.06 27 56 27 C56 26.34 56 25.68 56 25 C56.66 25 57.32 25 58 25 C57.67 20.71 57.34 16.42 57 12 C55.02 12 53.04 12 51 12 C51 16.29 51 20.58 51 25 C51.66 25 52.32 25 53 25 C52.67 26.98 52.34 28.96 52 31 C49.58325776 31.02705308 47.1668206 31.04686438 44.75 31.0625 C43.72712891 31.07506836 43.72712891 31.07506836 42.68359375 31.08789062 C39.27272605 31.10444824 36.28261772 30.89735111 33 30 C31.7625 30.309375 31.7625 30.309375 30.5 30.625 C28 31 28 31 25.6875 29.5625 C25.130625 29.046875 24.57375 28.53125 24 28 C21.3094472 29.22007944 21.3094472 29.22007944 19 31 C16.13732433 31.07325168 13.299281 31.09238205 10.4375 31.0625 C9.63119141 31.05798828 8.82488281 31.05347656 7.99414062 31.04882812 C5.99606244 31.03700518 3.99802217 31.01906914 2 31 C1.34 29.02 0.68 27.04 0 25 C0.99 25 1.98 25 3 25 C3 17.41 3 9.82 3 2 C2.01 2 1.02 2 0 2 C0 1.34 0 0.68 0 0 Z " fill="#B1B6B8" transform="translate(14,45)"/>
<path d="M0 0 C0.99 0.33 1.98 0.66 3 1 C3 2.98 3 4.96 3 7 C3.66 7 4.32 7 5 7 C5 5.35 5 3.7 5 2 C5.99 2 6.98 2 8 2 C8 3.65 8 5.3 8 7 C8.66 7 9.32 7 10 7 C10 5.02 10 3.04 10 1 C10.99 1.33 11.98 1.66 13 2 C13 3.32 13 4.64 13 6 C13.66 6 14.32 6 15 6 C15 4.02 15 2.04 15 0 C17.64 1.32 20.28 2.64 23 4 C23.05383848 6.45862401 23.09359038 8.9160755 23.125 11.375 C23.14175781 12.07367188 23.15851563 12.77234375 23.17578125 13.4921875 C23.19344267 15.32897486 23.10303261 17.16601963 23 19 C20.29141852 21.70858148 18.25823966 21.93336425 14.4921875 22.1328125 C13.62851563 22.13023438 12.76484375 22.12765625 11.875 22.125 C10.57175781 22.12886719 10.57175781 22.12886719 9.2421875 22.1328125 C7 22 7 22 5 21 C3.52423693 20.95134847 2.04619818 20.96303477 0.5703125 21.0078125 C-0.30753906 21.02457031 -1.18539062 21.04132813 -2.08984375 21.05859375 C-3.93900997 21.10268327 -5.788005 21.15470172 -7.63671875 21.21484375 C-8.95736328 21.23611328 -8.95736328 21.23611328 -10.3046875 21.2578125 C-11.10890137 21.2798877 -11.91311523 21.30196289 -12.74169922 21.32470703 C-15.59644961 20.91424022 -16.93691474 19.98936218 -19 18 C-19.4609375 14.96875 -19.4609375 14.96875 -19.375 11.5 C-19.36210937 10.3553125 -19.34921875 9.210625 -19.3359375 8.03125 C-19 5 -19 5 -17 2 C-14.375 1.8125 -14.375 1.8125 -12 2 C-11.67 4.31 -11.34 6.62 -11 9 C-9.68 8.67 -8.36 8.34 -7 8 C-7.99 7.67 -8.98 7.34 -10 7 C-10 5.68 -10 4.36 -10 3 C-8.68 3 -7.36 3 -6 3 C-5.34 4.32 -4.68 5.64 -4 7 C-3.67 7 -3.34 7 -3 7 C-3 5.35 -3 3.7 -3 2 C-2.01 2.33 -1.02 2.66 0 3 C0.33 3.99 0.66 4.98 1 6 C0.67 4.02 0.34 2.04 0 0 Z " fill="#417AAF" transform="translate(210,55)"/>
<path d="M0 0 C1.50046875 0.00386719 1.50046875 0.00386719 3.03125 0.0078125 C4.0315625 0.00523438 5.031875 0.00265625 6.0625 0 C8.53125 0.1328125 8.53125 0.1328125 9.53125 1.1328125 C9.57205783 3.13239614 9.57379356 5.13326504 9.53125 7.1328125 C8.54125 7.1328125 7.55125 7.1328125 6.53125 7.1328125 C6.20125 5.8128125 5.87125 4.4928125 5.53125 3.1328125 C2.61472826 2.96600141 2.61472826 2.96600141 -0.46875 3.1328125 C-3.15000591 5.81406841 -2.76755654 7.27406166 -2.78125 11.0078125 C-2.79800781 12.05710937 -2.81476563 13.10640625 -2.83203125 14.1875 C-2.42739316 17.46811418 -1.83726395 18.85141631 0.53125 21.1328125 C4.28809104 21.46824474 6.95121227 21.32615841 10.53125 20.1328125 C10.82 19.4934375 11.10875 18.8540625 11.40625 18.1953125 C12.53125 16.1328125 12.53125 16.1328125 14.90625 14.8828125 C17.53125 14.1328125 17.53125 14.1328125 21.53125 14.1328125 C21.20125 12.4828125 20.87125 10.8328125 20.53125 9.1328125 C19.21125 9.1328125 17.89125 9.1328125 16.53125 9.1328125 C16.20125 10.1228125 15.87125 11.1128125 15.53125 12.1328125 C14.21125 12.1328125 12.89125 12.1328125 11.53125 12.1328125 C11.84375 10.2578125 11.84375 10.2578125 12.53125 8.1328125 C16.59974409 5.42048311 18.69601784 5.82581363 23.53125 6.1328125 C25.53125 8.1328125 25.53125 8.1328125 25.7265625 11.390625 C25.70335937 12.66679688 25.68015625 13.94296875 25.65625 15.2578125 C25.63820312 16.53914063 25.62015625 17.82046875 25.6015625 19.140625 C25.57835937 20.12804687 25.55515625 21.11546875 25.53125 22.1328125 C27.84125 22.4628125 30.15125 22.7928125 32.53125 23.1328125 C32.53125 18.5128125 32.53125 13.8928125 32.53125 9.1328125 C31.87125 9.1328125 31.21125 9.1328125 30.53125 9.1328125 C30.53125 8.4728125 30.53125 7.8128125 30.53125 7.1328125 C32.51125 6.8028125 34.49125 6.4728125 36.53125 6.1328125 C37.02625 7.1228125 37.02625 7.1228125 37.53125 8.1328125 C38.19125 7.4728125 38.85125 6.8128125 39.53125 6.1328125 C42.15625 6.0078125 42.15625 6.0078125 44.53125 6.1328125 C44.53125 7.4528125 44.53125 8.7728125 44.53125 10.1328125 C42.22125 10.7928125 39.91125 11.4528125 37.53125 12.1328125 C37.53125 15.4328125 37.53125 18.7328125 37.53125 22.1328125 C38.52125 22.4628125 39.51125 22.7928125 40.53125 23.1328125 C39.87125 25.4428125 39.21125 27.7528125 38.53125 30.1328125 C36.97277344 30.02453125 36.97277344 30.02453125 35.3828125 29.9140625 C33.97400811 29.81956746 32.56515002 29.72587083 31.15625 29.6328125 C30.42905762 29.58439209 29.70186523 29.53597168 28.95263672 29.48608398 C24.06868422 29.17914527 19.24448093 29.0856417 14.3515625 29.29296875 C12.53125 29.1328125 12.53125 29.1328125 10.53125 27.1328125 C10.53125 25.8128125 10.53125 24.4928125 10.53125 23.1328125 C9.87125 23.4628125 9.21125 23.7928125 8.53125 24.1328125 C4.76429329 25.38846474 1.45667098 25.94168713 -2.46875 25.1328125 C-5.40625 22.6953125 -5.40625 22.6953125 -7.46875 20.1328125 C-7.79875 19.8028125 -8.12875 19.4728125 -8.46875 19.1328125 C-9.56073738 8.08814009 -9.56073738 8.08814009 -7.38671875 4.1953125 C-6.03125 2.8828125 -6.03125 2.8828125 -3.46875 1.1328125 C-2.46875 0.1328125 -2.46875 0.1328125 0 0 Z " fill="#C2C3C2" transform="translate(126.46875,46.8671875)"/>
<path d="M0 0 C2.97 0 5.94 0 9 0 C9 0.66 9 1.32 9 2 C8.34 2 7.68 2 7 2 C7 2.66 7 3.32 7 4 C7.66 4.33 8.32 4.66 9 5 C8.34 5 7.68 5 7 5 C5.79371992 7.33214148 4.8345262 9.49642139 4 12 C9.28 12 14.56 12 20 12 C20.495 14.475 20.495 14.475 21 17 C20.67 17 20.34 17 20 17 C19.505 19.475 19.505 19.475 19 22 C18.34 22 17.68 22 17 22 C16.814375 21.0409375 16.814375 21.0409375 16.625 20.0625 C16.41875 19.381875 16.2125 18.70125 16 18 C15.34 17.67 14.68 17.34 14 17 C14 18.98 14 20.96 14 23 C13.34 23 12.68 23 12 23 C12 21.35 12 19.7 12 18 C11.01 18 10.02 18 9 18 C9 19.65 9 21.3 9 23 C8.34 23 7.68 23 7 23 C6.67 21.02 6.34 19.04 6 17 C6 17.33 6 17.66 6 18 C5.67449498 19.66821323 5.34153937 21.33499557 5 23 C4.71125 22.360625 4.4225 21.72125 4.125 21.0625 C3.17176549 18.84793921 3.17176549 18.84793921 1 18 C1 19.65 1 21.3 1 23 C1.66 23.33 2.32 23.66 3 24 C1.68 23.67 0.36 23.34 -1 23 C-1.33 21.68 -1.66 20.36 -2 19 C-3.32 19 -4.64 19 -6 19 C-6 20.32 -6 21.64 -6 23 C-4.68 23.33 -3.36 23.66 -2 24 C-3.65 24.33 -5.3 24.66 -7 25 C-7.33 22.69 -7.66 20.38 -8 18 C-9.65 18 -11.3 18 -13 18 C-14.01819948 21.39947245 -14.19779749 24.58392983 -14.25 28.125 C-14.27578125 29.17945312 -14.3015625 30.23390625 -14.328125 31.3203125 C-14.21984375 32.20460937 -14.1115625 33.08890625 -14 34 C-10.7994681 36.13368793 -10.05955606 36.23623442 -6.40234375 36.16015625 C-5.51869141 36.14919922 -4.63503906 36.13824219 -3.72460938 36.12695312 C-2.34499023 36.09504883 -2.34499023 36.09504883 -0.9375 36.0625 C0.8866408 36.02813029 2.71086738 35.99797509 4.53515625 35.97265625 C5.74764038 35.94570679 5.74764038 35.94570679 6.98461914 35.91821289 C9 36 9 36 11 37 C12.60075452 37.12182734 14.20716137 37.17546598 15.8125 37.1875 C17.09060547 37.20876953 17.09060547 37.20876953 18.39453125 37.23046875 C21.48927618 37.08282148 21.48927618 37.08282148 26 35 C26.33 30.38 26.66 25.76 27 21 C27.33 21 27.66 21 28 21 C28.28381864 24.26882314 28.52117491 27.53940391 28.75 30.8125 C28.83121094 31.74126953 28.91242188 32.67003906 28.99609375 33.62695312 C29.05410156 34.51962891 29.11210937 35.41230469 29.171875 36.33203125 C29.2661377 37.56530151 29.2661377 37.56530151 29.36230469 38.82348633 C29 41 29 41 27.11230469 42.74951172 C23.62149275 44.81607884 20.51117244 45.15315777 16.5 45.1875 C15.37078125 45.20876953 15.37078125 45.20876953 14.21875 45.23046875 C11.73709355 44.97269106 10.19475474 44.14431204 8 43 C4.87450983 42.74951364 4.87450983 42.74951364 2 43 C1.67 43.33 1.34 43.66 1 44 C-4.17183549 44.54581655 -9.3656406 44.75768771 -14.125 42.4375 C-17 40 -17 40 -18 37.0625 C-18.2859364 31.39350007 -17.55096619 25.63680796 -17 20 C-16.01 19.67 -15.02 19.34 -14 19 C-13.26676204 16.98491642 -13.26676204 16.98491642 -13 15 C-12.09636719 14.93941406 -11.19273437 14.87882812 -10.26171875 14.81640625 C-9.08222656 14.73261719 -7.90273437 14.64882813 -6.6875 14.5625 C-4.92986328 14.44068359 -4.92986328 14.44068359 -3.13671875 14.31640625 C0.02590958 14.1132629 0.02590958 14.1132629 3 13 C2.505 12.54625 2.01 12.0925 1.5 11.625 C0 10 0 10 0 8 C1.65 7.67 3.3 7.34 5 7 C5 6.34 5 5.68 5 5 C3.35 5 1.7 5 0 5 C1.32 4.67 2.64 4.34 4 4 C4 3.34 4 2.68 4 2 C2.68 2 1.36 2 0 2 C0 1.34 0 0.68 0 0 Z " fill="#D9DBDB" transform="translate(206,39)"/>
<path d="M0 0 C2.56364483 -0.10845031 5.12266279 -0.18749744 7.6875 -0.25 C8.40873047 -0.28351562 9.12996094 -0.31703125 9.87304688 -0.3515625 C13.46564633 -0.41718075 15.66910969 -0.15866999 18.95703125 1.41796875 C21.99739279 5.26056718 21.8923934 8.78117998 22 13.5625 C22.07541016 14.85704102 22.07541016 14.85704102 22.15234375 16.17773438 C22.39842403 22.51184083 22.39842403 22.51184083 20.59082031 24.7265625 C16.7394413 27.80955711 11.95259541 27.12028236 7.25 27.0625 C6.55261719 27.05798828 5.85523438 27.05347656 5.13671875 27.04882812 C3.42444197 27.0371002 1.71220967 27.01916653 0 27 C0 26.34 0 25.68 0 25 C0.99 25 1.98 25 3 25 C3 17.41 3 9.82 3 2 C2.01 2 1.02 2 0 2 C0 1.34 0 0.68 0 0 Z " fill="#347EC0" transform="translate(14,45)"/>
<path d="M0 0 C0 4.29 0 8.58 0 13 C-0.66 13 -1.32 13 -2 13 C-1.34 14.65 -0.68 16.3 0 18 C14.19 18 28.38 18 43 18 C43.66 16.68 44.32 15.36 45 14 C45.70125 14.495 46.4025 14.99 47.125 15.5 C50.45800237 17.23895776 52.29065683 17.47353317 56 17 C57.36733028 16.04701223 58.70264493 15.04625409 60 14 C62.75 13.3125 62.75 13.3125 65 13 C65.99 15.97 65.99 15.97 67 19 C64.94921875 19.22786458 62.8984375 19.45572917 60.84765625 19.68359375 C58.98859771 19.81886614 58.98859771 19.81886614 58 21 C51.76470588 21.47058824 51.76470588 21.47058824 48.5625 19.5 C48.046875 19.005 47.53125 18.51 47 18 C46.43991745 18.32375107 45.8798349 18.64750214 45.30278015 18.98106384 C42.72859621 20.12009099 40.95950699 20.26860475 38.15551758 20.30297852 C37.1980513 20.31962051 36.24058502 20.33626251 35.25410461 20.35340881 C34.2279454 20.36182297 33.20178619 20.37023712 32.14453125 20.37890625 C30.55846321 20.40439796 30.55846321 20.40439796 28.94035339 20.43040466 C25.56446282 20.48352817 22.18858484 20.52384346 18.8125 20.5625 C15.42576497 20.60637149 12.03912708 20.65299869 8.6525116 20.70530701 C6.54476709 20.73736315 4.43693627 20.7642219 2.32905579 20.78553772 C1.38104599 20.79902756 0.43303619 20.8125174 -0.54370117 20.82641602 C-1.38213058 20.83592789 -2.22056 20.84543976 -3.08439636 20.85523987 C-5.00863238 20.79136138 -5.00863238 20.79136138 -6 22 C-9.03009267 22.13773149 -11.71403907 22.05985229 -14.6875 21.4375 C-17.1457356 20.77798502 -17.1457356 20.77798502 -20 22 C-21.82962436 22.14328384 -23.66501237 22.22040343 -25.5 22.25 C-26.4590625 22.27578125 -27.418125 22.3015625 -28.40625 22.328125 C-31.36443253 21.95389709 -32.20113073 21.30935919 -34 19 C-37.24983135 20.08784968 -37.24983135 20.08784968 -40 22 C-42.82586751 22.15322744 -45.61043882 22.23162755 -48.4375 22.25 C-49.22705078 22.270625 -50.01660156 22.29125 -50.83007812 22.3125 C-53.12109375 22.328125 -53.12109375 22.328125 -57 22 C-59.1519437 18.77208445 -59.20086443 17.71599191 -59 14 C-57.515 14.99 -57.515 14.99 -56 16 C-56 16.99 -56 17.98 -56 19 C-53.22763506 18.91308261 -50.45852922 18.80622639 -47.6875 18.6875 C-46.90181641 18.66494141 -46.11613281 18.64238281 -45.30664062 18.61914062 C-44.1706543 18.5659668 -44.1706543 18.5659668 -43.01171875 18.51171875 C-42.31522217 18.48553467 -41.61872559 18.45935059 -40.90112305 18.43237305 C-38.50649641 17.88776232 -37.56727453 16.84170838 -36 15 C-35.195625 15.4640625 -35.195625 15.4640625 -34.375 15.9375 C-30.38038215 17.72456588 -27.17953643 18.39317881 -23 17 C-22.34 17.33 -21.68 17.66 -21 18 C-18.45384991 18.23172827 -15.92603775 18.41894529 -13.375 18.5625 C-12.66859375 18.60568359 -11.9621875 18.64886719 -11.234375 18.69335938 C-9.48981463 18.79944751 -7.74493303 18.90022889 -6 19 C-5.67 17.02 -5.34 15.04 -5 13 C-5.66 13 -6.32 13 -7 13 C-7 8.71 -7 4.42 -7 0 C-5 -1 -5 -1 0 0 Z " fill="#E3E4E3" transform="translate(72,57)"/>
<path d="M0 0 C1.64600021 0 3.29258261 -0.01061792 4.9375 -0.0703125 C5.618125 -0.08835937 6.29875 -0.10640625 7 -0.125 C8.0209375 -0.15980469 8.0209375 -0.15980469 9.0625 -0.1953125 C11 0 11 0 14 2 C13.814375 3.216875 13.62875 4.43375 13.4375 5.6875 C13.01006818 9.02977939 13.07741117 11.71968417 14 15 C13.01 15 12.02 15 11 15 C10.71125 14.360625 10.4225 13.72125 10.125 13.0625 C9.17176549 10.84793921 9.17176549 10.84793921 7 10 C7 11.65 7 13.3 7 15 C5.68 15 4.36 15 3 15 C1.49887283 15.24314032 -0.00112465 15.49334326 -1.5 15.75 C-4.71636479 16.10501885 -5.66263445 16.18925384 -8.5625 14.5625 C-10.5701696 10.98361071 -10.80554658 8.0112932 -10 4 C-7.23782486 -0.24950021 -4.86497967 -0.41404082 0 0 Z " fill="#EDF0F2" transform="translate(110,88)"/>
<path d="M0 0 C0.66 0 1.32 0 2 0 C2.12375 1.134375 2.2475 2.26875 2.375 3.4375 C2.58125 4.613125 2.7875 5.78875 3 7 C3.66 7.33 4.32 7.66 5 8 C4.34 9.32 3.68 10.64 3 12 C4.32 12 5.64 12 7 12 C7.33 10.68 7.66 9.36 8 8 C10.475 8.495 10.475 8.495 13 9 C13 10.65 13 12.3 13 14 C12.40832031 14.15855469 11.81664062 14.31710938 11.20703125 14.48046875 C7.02103872 15.71646328 4.48768192 16.5007066 1.375 19.6875 C-1 22 -1 22 -4.5625 22.625 C-8 22 -8 22 -10.4375 20.25 C-12.78653742 15.36400217 -12.84301105 10.33147527 -12 5 C-10.671875 3.14453125 -10.671875 3.14453125 -9 2 C-5.8125 1.8125 -5.8125 1.8125 -3 2 C-2.67 3.65 -2.34 5.3 -2 7 C-1.01 7 -0.02 7 1 7 C0.67 4.69 0.34 2.38 0 0 Z " fill="#F0F1F0" transform="translate(135,47)"/>
<path d="M0 0 C2.97 0 5.94 0 9 0 C9 0.66 9 1.32 9 2 C8.34 2 7.68 2 7 2 C7 2.66 7 3.32 7 4 C7.66 4.33 8.32 4.66 9 5 C8.34 5 7.68 5 7 5 C5.79371992 7.33214148 4.8345262 9.49642139 4 12 C9.28 12 14.56 12 20 12 C20.495 14.475 20.495 14.475 21 17 C20.67 17 20.34 17 20 17 C19.505 19.475 19.505 19.475 19 22 C18.34 22 17.68 22 17 22 C16.87625 21.360625 16.7525 20.72125 16.625 20.0625 C16.41875 19.381875 16.2125 18.70125 16 18 C15.34 17.67 14.68 17.34 14 17 C14 18.98 14 20.96 14 23 C13.34 23 12.68 23 12 23 C12 21.35 12 19.7 12 18 C11.01 18 10.02 18 9 18 C9 19.65 9 21.3 9 23 C8.34 23 7.68 23 7 23 C6.67 21.02 6.34 19.04 6 17 C6 17.33 6 17.66 6 18 C5.67449498 19.66821323 5.34153937 21.33499557 5 23 C4.71125 22.360625 4.4225 21.72125 4.125 21.0625 C3.17176549 18.84793921 3.17176549 18.84793921 1 18 C1 19.65 1 21.3 1 23 C1.66 23.33 2.32 23.66 3 24 C1.68 23.67 0.36 23.34 -1 23 C-1.33 21.68 -1.66 20.36 -2 19 C-3.32 19 -4.64 19 -6 19 C-6 20.32 -6 21.64 -6 23 C-4.68 23.33 -3.36 23.66 -2 24 C-3.65 24.33 -5.3 24.66 -7 25 C-7.33 22.69 -7.66 20.38 -8 18 C-9.65 18 -11.3 18 -13 18 C-13 17.01 -13 16.02 -13 15 C-12.09636719 14.93941406 -11.19273437 14.87882812 -10.26171875 14.81640625 C-9.08222656 14.73261719 -7.90273437 14.64882813 -6.6875 14.5625 C-4.92986328 14.44068359 -4.92986328 14.44068359 -3.13671875 14.31640625 C0.02590958 14.1132629 0.02590958 14.1132629 3 13 C2.505 12.54625 2.01 12.0925 1.5 11.625 C0 10 0 10 0 8 C1.65 7.67 3.3 7.34 5 7 C5 6.34 5 5.68 5 5 C3.35 5 1.7 5 0 5 C1.32 4.67 2.64 4.34 4 4 C4 3.34 4 2.68 4 2 C2.68 2 1.36 2 0 2 C0 1.34 0 0.68 0 0 Z " fill="#389FDA" transform="translate(206,39)"/>
<path d="M0 0 C0.33 5.61 0.66 11.22 1 17 C2.32 15.35 3.64 13.7 5 12 C4.34 12 3.68 12 3 12 C3 11.34 3 10.68 3 10 C5.97 10 8.94 10 12 10 C12 10.66 12 11.32 12 12 C10.03852126 13.38938077 8.03833424 14.7260411 6 16 C6.58913002 19.38563328 7.73567522 21.12765142 10.0625 23.625 C13 26.79058824 13 26.79058824 13 29 C10.36 29 7.72 29 5 29 C4.525625 27.865625 4.05125 26.73125 3.5625 25.5625 C2.36377917 22.24259834 2.36377917 22.24259834 1 21 C0.67 22.98 0.34 24.96 0 27 C0.66 27 1.32 27 2 27 C2 27.66 2 28.32 2 29 C-0.97 29 -3.94 29 -7 29 C-7 28.34 -7 27.68 -7 27 C-6.34 27 -5.68 27 -5 27 C-5 19.08 -5 11.16 -5 3 C-5.66 3 -6.32 3 -7 3 C-7 2.34 -7 1.68 -7 1 C-4.50935112 0.31292445 -2.62113708 0 0 0 Z " fill="#266BB3" transform="translate(88,43)"/>
<path d="M0 0 C0.33 -0.33 0.66 -0.66 1 -1 C7.25493999 -1.46332889 7.25493999 -1.46332889 9.71484375 0.06640625 C11.69489406 3.04550929 11.28442175 5.66600966 11.1875 9.1875 C11.16042969 10.45980469 11.13335937 11.73210937 11.10546875 13.04296875 C11.07066406 14.01878906 11.03585938 14.99460937 11 16 C11.66 16 12.32 16 13 16 C13 16.66 13 17.32 13 18 C10.03 18 7.06 18 4 18 C4 17.34 4 16.68 4 16 C4.66 16 5.32 16 6 16 C5.67 11.71 5.34 7.42 5 3 C3.02 3 1.04 3 -1 3 C-1 7.29 -1 11.58 -1 16 C-0.34 16 0.32 16 1 16 C1 16.66 1 17.32 1 18 C-1.97 18 -4.94 18 -8 18 C-8 17.34 -8 16.68 -8 16 C-7.34 16 -6.68 16 -6 16 C-6 11.38 -6 6.76 -6 2 C-6.66 2 -7.32 2 -8 2 C-8 1.34 -8 0.68 -8 0 C-4.68589597 -1.10470134 -3.32050692 -0.69905409 0 0 Z " fill="#348CD0" transform="translate(66,54)"/>
<path d="M0 0 C0.680625 -0.01675781 1.36125 -0.03351562 2.0625 -0.05078125 C4 0.3125 4 0.3125 5.73828125 1.4140625 C7.62865059 4.25839532 7.28754941 6.63166979 7.1875 10 C7.16042969 11.17949219 7.13335937 12.35898438 7.10546875 13.57421875 C7.07066406 14.47785156 7.03585938 15.38148437 7 16.3125 C7.66 16.3125 8.32 16.3125 9 16.3125 C9 16.9725 9 17.6325 9 18.3125 C5.846632 19.01324844 3.27275026 19.3125 0 19.3125 C-1.546875 19.374375 -1.546875 19.374375 -3.125 19.4375 C-6 19.3125 -6 19.3125 -8 17.3125 C-8.35256314 14.5625075 -8.39100294 12.95650485 -6.9375 10.5625 C-4.10246091 8.73344252 -1.31199025 8.62495191 2 8.3125 C1.67 6.6625 1.34 5.0125 1 3.3125 C-0.32 3.3125 -1.64 3.3125 -3 3.3125 C-3.33 4.3025 -3.66 5.2925 -4 6.3125 C-4.99 6.3125 -5.98 6.3125 -7 6.3125 C-7 4.9925 -7 3.6725 -7 2.3125 C-4.03082597 0.33305064 -3.34297721 0.01899419 0 0 Z " fill="#3682C4" transform="translate(47,52.6875)"/>
<path d="M0 0 C2 2 2 2 2.1953125 5.2578125 C2.16050781 7.17207031 2.16050781 7.17207031 2.125 9.125 C2.10695312 10.40632813 2.08890625 11.68765625 2.0703125 13.0078125 C2.04710937 13.99523437 2.02390625 14.98265625 2 16 C2.99 16 3.98 16 5 16 C5 16.66 5 17.32 5 18 C1.71303767 18.79953138 0.28976808 19.09658936 -3 18 C-4.175625 18.185625 -5.35125 18.37125 -6.5625 18.5625 C-7.696875 18.706875 -8.83125 18.85125 -10 19 C-12 17 -12 17 -12.125 13.875 C-12.08375 12.92625 -12.0425 11.9775 -12 11 C-8.27034861 8.96564469 -6.33094958 8 -2 8 C-2.33 6.35 -2.66 4.7 -3 3 C-4.32 3 -5.64 3 -7 3 C-7.33 3.99 -7.66 4.98 -8 6 C-9.32 6 -10.64 6 -12 6 C-11.6875 4.125 -11.6875 4.125 -11 2 C-6.93150591 -0.71232939 -4.83523216 -0.30699887 0 0 Z " fill="#1A1916" transform="translate(150,53)"/>
<path d="M0 0 C0.99 0.33 1.98 0.66 3 1 C3 2.98 3 4.96 3 7 C3.66 7 4.32 7 5 7 C5 5.35 5 3.7 5 2 C5.99 2 6.98 2 8 2 C8 3.65 8 5.3 8 7 C8.66 7 9.32 7 10 7 C10 5.02 10 3.04 10 1 C10.99 1.33 11.98 1.66 13 2 C13 3.32 13 4.64 13 6 C13.66 6 14.32 6 15 6 C15 4.02 15 2.04 15 0 C15.66 0.33 16.32 0.66 17 1 C17 3.31 17 5.62 17 8 C12.38 8.66 7.76 9.32 3 10 C2.67 10.99 2.34 11.98 2 13 C1.01 13 0.02 13 -1 13 C-1 12.01 -1 11.02 -1 10 C-1.99 10.165 -2.98 10.33 -4 10.5 C-8.02732942 11.08474517 -11.93474623 11.07132024 -16 11 C-16 10.34 -16 9.68 -16 9 C-15.01 9 -14.02 9 -13 9 C-13 8.34 -13 7.68 -13 7 C-13.99 7 -14.98 7 -16 7 C-16.33 5.35 -16.66 3.7 -17 2 C-15.35 2 -13.7 2 -12 2 C-11.67 4.31 -11.34 6.62 -11 9 C-9.68 8.67 -8.36 8.34 -7 8 C-7.99 7.67 -8.98 7.34 -10 7 C-10 5.68 -10 4.36 -10 3 C-8.68 3 -7.36 3 -6 3 C-5.34 4.32 -4.68 5.64 -4 7 C-3.67 7 -3.34 7 -3 7 C-3 5.35 -3 3.7 -3 2 C-2.01 2.33 -1.02 2.66 0 3 C0.33 3.99 0.66 4.98 1 6 C0.67 4.02 0.34 2.04 0 0 Z " fill="#1B4A89" transform="translate(210,55)"/>
<path d="M0 0 C5 1 5 1 6.3125 2.75 C7.08405427 5.27508669 7.14589484 7.37389293 7 10 C7.66 10 8.32 10 9 10 C9.66 7.03 10.32 4.06 11 1 C12.65614657 0.61781233 14.32457024 0.28604898 16 0 C17 1 17 1 17.09765625 4.16015625 C17.08605469 5.44792969 17.07445312 6.73570313 17.0625 8.0625 C17.05347656 9.35285156 17.04445312 10.64320312 17.03515625 11.97265625 C17.02355469 12.97167969 17.01195312 13.97070312 17 15 C15.68 15 14.36 15 13 15 C12.67 13.02 12.34 11.04 12 9 C11.01 11.31 10.02 13.62 9 16 C8.01 15.67 7.02 15.34 6 15 C4.8125 11.4375 4.8125 11.4375 4 8 C3.67 10.64 3.34 13.28 3 16 C2.01 16 1.02 16 0 16 C0 10.72 0 5.44 0 0 Z " fill="#1B5399" transform="translate(127,88)"/>
<path d="M0 0 C1.50046875 0.00386719 1.50046875 0.00386719 3.03125 0.0078125 C4.0315625 0.00523438 5.031875 0.00265625 6.0625 0 C8.53125 0.1328125 8.53125 0.1328125 9.53125 1.1328125 C9.57205783 3.13239614 9.57379356 5.13326504 9.53125 7.1328125 C8.54125 7.1328125 7.55125 7.1328125 6.53125 7.1328125 C6.20125 5.8128125 5.87125 4.4928125 5.53125 3.1328125 C2.61472826 2.96600141 2.61472826 2.96600141 -0.46875 3.1328125 C-3.15000591 5.81406841 -2.76755654 7.27406166 -2.78125 11.0078125 C-2.79800781 12.05710937 -2.81476563 13.10640625 -2.83203125 14.1875 C-2.42433564 17.49290312 -1.91334916 18.88205821 0.53125 21.1328125 C2.81014342 21.61449978 2.81014342 21.61449978 5.21875 21.3828125 C6.43111328 21.32867187 6.43111328 21.32867187 7.66796875 21.2734375 C8.28285156 21.22703125 8.89773437 21.180625 9.53125 21.1328125 C9.53125 21.7928125 9.53125 22.4528125 9.53125 23.1328125 C6.3640436 25.24428343 3.27582159 25.60169443 -0.5 25.53125 C-3.82372067 24.85859225 -5.41693657 22.68203525 -7.46875 20.1328125 C-7.79875 19.8028125 -8.12875 19.4728125 -8.46875 19.1328125 C-9.56073738 8.08814009 -9.56073738 8.08814009 -7.38671875 4.1953125 C-6.03125 2.8828125 -6.03125 2.8828125 -3.46875 1.1328125 C-2.46875 0.1328125 -2.46875 0.1328125 0 0 Z " fill="#191817" transform="translate(126.46875,46.8671875)"/>
<path d="M0 0 C0.84473877 0.49004517 0.84473877 0.49004517 1.70654297 0.98999023 C4.26495719 2.11668383 5.91635611 2.21834117 8.6953125 2.16015625 C9.57574219 2.14919922 10.45617187 2.13824219 11.36328125 2.12695312 C12.27464844 2.10568359 13.18601563 2.08441406 14.125 2.0625 C15.9400259 2.02813415 17.7551379 1.99797807 19.5703125 1.97265625 C20.77324951 1.94570679 20.77324951 1.94570679 22.00048828 1.91821289 C24 2 24 2 26 3 C31.67954768 3.43924559 36.68659435 3.23722343 42 1 C40.75023244 4.65316671 40.32901247 5.78065836 37 8 C32.77010753 8.27737 29.8857588 8.30115799 25.875 6.9375 C22.38893218 5.80073875 20.59084249 6.32248255 17 7 C15.14753665 7.10109313 13.29251809 7.16014719 11.4375 7.1875 C10.52871094 7.20167969 9.61992187 7.21585937 8.68359375 7.23046875 C5.73650928 6.97737125 3.62088672 6.36600986 1 5 C0.1875 2.375 0.1875 2.375 0 0 Z " fill="#ABAFB1" transform="translate(191,73)"/>
<path d="M0 0 C2.5 2.25 2.5 2.25 5 5 C5 6.32 5 7.64 5 9 C7.64 9 10.28 9 13 9 C12.34 10.32 11.68 11.64 11 13 C2.09 13 -6.82 13 -16 13 C-16.33 11.68 -16.66 10.36 -17 9 C-14.36 9 -11.72 9 -9 9 C-9 8.34 -9 7.68 -9 7 C-8.34 7 -7.68 7 -7 7 C-7 7.66 -7 8.32 -7 9 C-4.03 9 -1.06 9 2 9 C2 8.34 2 7.68 2 7 C1.34 7 0.68 7 0 7 C0 4.69 0 2.38 0 0 Z " fill="#BBBCBC" transform="translate(88,63)"/>
<path d="M0 0 C1.21236328 0.02707031 1.21236328 0.02707031 2.44921875 0.0546875 C3.37154297 0.08949219 3.37154297 0.08949219 4.3125 0.125 C4.3125 1.775 4.3125 3.425 4.3125 5.125 C3.6525 5.125 2.9925 5.125 2.3125 5.125 C1.9825 4.465 1.6525 3.805 1.3125 3.125 C-1.21483235 2.46944881 -1.21483235 2.46944881 -3.6875 2.125 C-3.6875 3.445 -3.6875 4.765 -3.6875 6.125 C-2.759375 6.393125 -1.83125 6.66125 -0.875 6.9375 C3.64293478 8.62065217 3.64293478 8.62065217 5.3125 11.125 C5.73658618 13.9522412 5.81981102 15.42930639 4.11328125 17.76953125 C1.68602445 19.59655535 0.12634884 19.42943567 -2.875 19.3125 C-4.22658203 19.27189453 -4.22658203 19.27189453 -5.60546875 19.23046875 C-6.29253906 19.19566406 -6.97960937 19.16085938 -7.6875 19.125 C-7.6875 16.815 -7.6875 14.505 -7.6875 12.125 C-6.6975 12.62 -6.6975 12.62 -5.6875 13.125 C-5.3575 14.115 -5.0275 15.105 -4.6875 16.125 C-3.0375 16.125 -1.3875 16.125 0.3125 16.125 C0.27294102 14.20190578 0.27294102 14.20190578 -0.6875 12.125 C-3.63759373 10.39987535 -3.63759373 10.39987535 -6.6875 9.125 C-7.6875 8.125 -7.6875 8.125 -7.9375 5.1875 C-7.855 4.176875 -7.7725 3.16625 -7.6875 2.125 C-4.48369983 -0.01086678 -3.66810033 -0.10632175 0 0 Z " fill="#28528C" transform="translate(110.6875,52.875)"/>
<path d="M0 0 C1.258125 -0.04125 2.51625 -0.0825 3.8125 -0.125 C4.52019531 -0.14820312 5.22789063 -0.17140625 5.95703125 -0.1953125 C8 0 8 0 11 2 C10.814375 3.216875 10.62875 4.43375 10.4375 5.6875 C10.01006818 9.02977939 10.07741117 11.71968417 11 15 C10.01 15 9.02 15 8 15 C7.71125 14.360625 7.4225 13.72125 7.125 13.0625 C6.17176549 10.84793921 6.17176549 10.84793921 4 10 C4 11.65 4 13.3 4 15 C2.68 15 1.36 15 0 15 C0 10.05 0 5.1 0 0 Z " fill="#114C96" transform="translate(113,88)"/>
<path d="M0 0 C0.99 2.97 0.99 2.97 2 6 C-0.05078125 6.22786458 -2.1015625 6.45572917 -4.15234375 6.68359375 C-6.01140229 6.81886614 -6.01140229 6.81886614 -7 8 C-13.23529412 8.47058824 -13.23529412 8.47058824 -16.4375 6.5 C-16.953125 6.005 -17.46875 5.51 -18 5 C-18.5692218 5.32531708 -19.1384436 5.65063416 -19.72491455 5.98580933 C-22.18149235 7.08090591 -23.73113275 7.24275804 -26.40136719 7.22705078 C-27.6922525 7.22682419 -27.6922525 7.22682419 -29.00921631 7.22659302 C-29.92914368 7.21627045 -30.84907104 7.20594788 -31.796875 7.1953125 C-32.74564514 7.1924826 -33.69441528 7.18965271 -34.67193604 7.18673706 C-37.69808639 7.17555448 -40.7239393 7.1504533 -43.75 7.125 C-45.80338114 7.11496772 -47.85676692 7.1058423 -49.91015625 7.09765625 C-54.94021854 7.07562141 -59.97005886 7.04110462 -65 7 C-65 6.67 -65 6.34 -65 6 C-50.65299359 5.12000837 -36.37255792 4.87286115 -22 5 C-21.34 3.68 -20.68 2.36 -20 1 C-19.29875 1.495 -18.5975 1.99 -17.875 2.5 C-14.54199763 4.23895776 -12.70934317 4.47353317 -9 4 C-6.75244247 2.6483633 -6.75244247 2.6483633 -5 1 C-3 0 -3 0 0 0 Z " fill="#D7D8D7" transform="translate(137,70)"/>
<path d="M0 0 C0.125 2.875 0.125 2.875 0 6 C-3.20752745 9.20752745 -6.59597233 9.16943852 -11 9.25 C-12.2684375 9.28867188 -12.2684375 9.28867188 -13.5625 9.328125 C-16.47264128 8.93637521 -17.8220601 7.91578046 -20 6 C-19.67 4.35 -19.34 2.7 -19 1 C-17.53626953 1.01740234 -17.53626953 1.01740234 -16.04296875 1.03515625 C-14.77066406 1.04417969 -13.49835938 1.05320312 -12.1875 1.0625 C-10.29064453 1.07990234 -10.29064453 1.07990234 -8.35546875 1.09765625 C-5.35544391 1.0103447 -2.92761728 0 0 0 Z " fill="#366CA6" transform="translate(233,68)"/>
<path d="M0 0 C1.32 0 2.64 0 4 0 C4 1.65 4 3.3 4 5 C5.65 5 7.3 5 9 5 C9 5.66 9 6.32 9 7 C7.35 7 5.7 7 4 7 C4.33 11.29 4.66 15.58 5 20 C6.65 20.33 8.3 20.66 10 21 C10 21.66 10 22.32 10 23 C7.23749964 24.38125018 5.05268901 24.19079306 2 24 C0 22 0 22 -0.1953125 18.5234375 C-0.18201493 17.14049032 -0.15816232 15.75761346 -0.125 14.375 C-0.11597656 13.66859375 -0.10695312 12.9621875 -0.09765625 12.234375 C-0.07407603 10.48943902 -0.03820461 8.74467705 0 7 C-0.66 6.67 -1.32 6.34 -2 6 C-1.34 4.02 -0.68 2.04 0 0 Z " fill="#24231F" transform="translate(175,48)"/>
<path d="M0 0 C0.33 0.66 0.66 1.32 1 2 C1.66 1.34 2.32 0.68 3 0 C5.625 -0.125 5.625 -0.125 8 0 C8 1.32 8 2.64 8 4 C5.69 4.66 3.38 5.32 1 6 C1 9.3 1 12.6 1 16 C1.99 16.33 2.98 16.66 4 17 C4 17.66 4 18.32 4 19 C0.7 19 -2.6 19 -6 19 C-6 18.34 -6 17.68 -6 17 C-5.34 17 -4.68 17 -4 17 C-4 12.38 -4 7.76 -4 3 C-4.66 3 -5.32 3 -6 3 C-6 2.34 -6 1.68 -6 1 C-3 0 -3 0 0 0 Z " fill="#121110" transform="translate(163,53)"/>
<path d="M0 0 C2.0625 0.4375 2.0625 0.4375 4 1 C4.36521739 7.45217391 4.36521739 7.45217391 2.75 9.875 C-1.39447637 12.53930624 -5.98213094 12.1210844 -10.75 12.0625 C-11.44738281 12.05798828 -12.14476562 12.05347656 -12.86328125 12.04882812 C-14.57555803 12.0371002 -16.28779033 12.01916653 -18 12 C-18 11.34 -18 10.68 -18 10 C-17.01 9.67 -16.02 9.34 -15 9 C-14.67 6.36 -14.34 3.72 -14 1 C-12.68 1.33 -11.36 1.66 -10 2 C-9.67 4.31 -9.34 6.62 -9 9 C-5.535 8.505 -5.535 8.505 -2 8 C-1.855625 6.865625 -1.71125 5.73125 -1.5625 4.5625 C-1 1 -1 1 0 0 Z " fill="#214981" transform="translate(32,60)"/>
<path d="M0 0 C1.98 0.99 3.96 1.98 6 3 C6 5.31 6 7.62 6 10 C2.46448834 12.18906373 -0.45138074 12.26870816 -4.5625 12.25 C-5.69816406 12.25515625 -6.83382812 12.2603125 -8.00390625 12.265625 C-11 12 -11 12 -14 10 C-14 9.34 -14 8.68 -14 8 C-9.38 7.67 -4.76 7.34 0 7 C0 4.69 0 2.38 0 0 Z " fill="#83A1BD" transform="translate(227,56)"/>
<path d="M0 0 C0.66 0 1.32 0 2 0 C2.12375 1.134375 2.2475 2.26875 2.375 3.4375 C2.58125 4.613125 2.7875 5.78875 3 7 C3.66 7.33 4.32 7.66 5 8 C2.375 11.875 2.375 11.875 -1 13 C-2.70840281 11.36587557 -3.93453047 10.13093906 -5 8 C-7.75641416 8.49756092 -7.75641416 8.49756092 -10 10 C-10.36760731 12.32817964 -10.70241581 14.6618385 -11 17 C-11.33 17 -11.66 17 -12 17 C-12.08107583 15.06318839 -12.13922475 13.1254066 -12.1875 11.1875 C-12.22230469 10.10855469 -12.25710937 9.02960937 -12.29296875 7.91796875 C-12 5 -12 5 -10.6875 3.125 C-8.1654793 1.44365287 -5.94775013 1.80348332 -3 2 C-2.67 3.65 -2.34 5.3 -2 7 C-1.01 7 -0.02 7 1 7 C0.67 4.69 0.34 2.38 0 0 Z " fill="#E0E1E0" transform="translate(135,47)"/>
<path d="M0 0 C0 0.99 0 1.98 0 3 C0.66 3.33 1.32 3.66 2 4 C1.67 8.29 1.34 12.58 1 17 C1.66 17 2.32 17 3 17 C3 17.66 3 18.32 3 19 C0.03 19 -2.94 19 -6 19 C-6 18.34 -6 17.68 -6 17 C-5.34 17 -4.68 17 -4 17 C-4 12.38 -4 7.76 -4 3 C-4.66 3 -5.32 3 -6 3 C-6 2.34 -6 1.68 -6 1 C-3 0 -3 0 0 0 Z " fill="#347DBF" transform="translate(64,53)"/>
<path d="M0 0 C0.33 0.66 0.66 1.32 1 2 C1.66 2 2.32 2 3 2 C2.67 6.95 2.34 11.9 2 17 C-2.61288629 14.69355686 -4.09183413 13.15452268 -7 9 C-7.0625 6.8125 -7.0625 6.8125 -6 5 C-2.67857143 2 -2.67857143 2 0 2 C0 1.34 0 0.68 0 0 Z " fill="#E6E9EA" transform="translate(100,53)"/>
<path d="M0 0 C0.66 0 1.32 0 2 0 C2 2.97 2 5.94 2 9 C2.99 9 3.98 9 5 9 C5 9.66 5 10.32 5 11 C1.846632 11.70074844 -0.72724974 12 -4 12 C-5.546875 12.061875 -5.546875 12.061875 -7.125 12.125 C-10 12 -10 12 -12 10 C-12.25 7.5 -12.25 7.5 -12 5 C-11.34 4.34 -10.68 3.68 -10 3 C-7.875 3.375 -7.875 3.375 -6 4 C-6.33 5.32 -6.66 6.64 -7 8 C-5.02 8 -3.04 8 -1 8 C-1.020625 6.865625 -1.04125 5.73125 -1.0625 4.5625 C-1 1 -1 1 0 0 Z " fill="#164E94" transform="translate(51,60)"/>
<path d="M0 0 C0.33 0.99 0.66 1.98 1 3 C1.99 3 2.98 3 4 3 C4 3.66 4 4.32 4 5 C3.01 5 2.02 5 1 5 C1 5.66 1 6.32 1 7 C5.95 6.67 10.9 6.34 16 6 C16 7.32 16 8.64 16 10 C11.05 10 6.1 10 1 10 C1.66 10.33 2.32 10.66 3 11 C3 11.66 3 12.32 3 13 C1.35 12.67 -0.3 12.34 -2 12 C-2 8.37 -2 4.74 -2 1 C-1.34 0.67 -0.68 0.34 0 0 Z " fill="#6095C2" transform="translate(193,59)"/>
<path d="M0 0 C5.625 -0.25 5.625 -0.25 9 2 C9.375 5.5 9.375 5.5 9 9 C5.77786243 11.14809171 4.72224599 11.29386153 1 11 C0 10 0 10 -0.09765625 7.71484375 C-0.08605469 6.79832031 -0.07445313 5.88179688 -0.0625 4.9375 C-0.05347656 4.01839844 -0.04445313 3.09929688 -0.03515625 2.15234375 C-0.02355469 1.44207031 -0.01195313 0.73179688 0 0 Z " fill="#B7C0C6" transform="translate(22,59)"/>
<path d="M0 0 C0.33 1.32 0.66 2.64 1 4 C0.030625 3.979375 -0.93875 3.95875 -1.9375 3.9375 C-4.87465895 3.64381501 -4.87465895 3.64381501 -6 5 C-6.04080783 6.99958364 -6.04254356 9.00045254 -6 11 C-2.52852158 11.74957157 -2.52852158 11.74957157 1 12 C1 12.99 1 13.98 1 15 C-5.25 16.44230769 -5.25 16.44230769 -8.4375 14.5625 C-10.60849319 11.00207117 -10.81697796 8.06821679 -10 4 C-7.25492723 -0.22318887 -4.85423095 -0.44129372 0 0 Z " fill="#265491" transform="translate(110,88)"/>
<path d="M0 0 C2.04136395 -0.05451714 4.08315856 -0.09302485 6.125 -0.125 C7.83042969 -0.15980469 7.83042969 -0.15980469 9.5703125 -0.1953125 C13.05757767 0.00327891 15.7553862 0.7475199 19 2 C18.67 3.65 18.34 5.3 18 7 C17.71125 6.360625 17.4225 5.72125 17.125 5.0625 C16.17176549 2.84793921 16.17176549 2.84793921 14 2 C14 3.65 14 5.3 14 7 C14.66 7.33 15.32 7.66 16 8 C14.68 7.67 13.36 7.34 12 7 C11.67 5.68 11.34 4.36 11 3 C9.68 3 8.36 3 7 3 C7 4.32 7 5.64 7 7 C8.32 7.33 9.64 7.66 11 8 C9.35 8.33 7.7 8.66 6 9 C5.67 6.69 5.34 4.38 5 2 C3.35 2 1.7 2 0 2 C0 1.34 0 0.68 0 0 Z " fill="#6CAAD5" transform="translate(193,55)"/>
<path d="M0 0 C0.33 0.66 0.66 1.32 1 2 C1.66 2 2.32 2 3 2 C3 6.62 3 11.24 3 16 C0.03 15.505 0.03 15.505 -3 15 C-3.08107583 13.06318839 -3.13922475 11.1254066 -3.1875 9.1875 C-3.22230469 8.10855469 -3.25710937 7.02960937 -3.29296875 5.91796875 C-3 3 -3 3 -1.48828125 1.11328125 C-0.99714844 0.74589844 -0.50601563 0.37851562 0 0 Z " fill="#DADEDF" transform="translate(57,54)"/>
<path d="M0 0 C1.65 0.33 3.3 0.66 5 1 C5 5.62 5 10.24 5 15 C3.68 15 2.36 15 1 15 C0.814375 13.576875 0.814375 13.576875 0.625 12.125 C0.28312823 8.91332809 0.28312823 8.91332809 -2 7 C-1.43181818 1.43181818 -1.43181818 1.43181818 0 0 Z " fill="#4171AA" transform="translate(139,88)"/>
<path d="M0 0 C3 1 3 1 4 2 C4.07271741 4.35313555 4.08370868 6.70833668 4.0625 9.0625 C4.05347656 10.35285156 4.04445312 11.64320312 4.03515625 12.97265625 C4.02355469 13.97167969 4.01195312 14.97070312 4 16 C3.67 16 3.34 16 3 16 C2.67 13.03 2.34 10.06 2 7 C-2.455 7.495 -2.455 7.495 -7 8 C-7 10.64 -7 13.28 -7 16 C-7.33 16 -7.66 16 -8 16 C-8.05395478 14.37536158 -8.09277195 12.75021459 -8.125 11.125 C-8.14820313 10.22007813 -8.17140625 9.31515625 -8.1953125 8.3828125 C-8 6 -8 6 -6 4 C-2.875 3.875 -2.875 3.875 0 4 C0 2.68 0 1.36 0 0 Z " fill="#BEBFBE" transform="translate(171,53)"/>
<path d="M0 0 C2.31 0.33 4.62 0.66 7 1 C7.33 3.31 7.66 5.62 8 8 C5 10 5 10 0 10 C0 6.7 0 3.4 0 0 Z " fill="#C3D1D9" transform="translate(22,47)"/>
<path d="M0 0 C1.21236328 0.02707031 1.21236328 0.02707031 2.44921875 0.0546875 C3.37154297 0.08949219 3.37154297 0.08949219 4.3125 0.125 C4.3125 1.775 4.3125 3.425 4.3125 5.125 C3.6525 5.125 2.9925 5.125 2.3125 5.125 C1.9825 4.465 1.6525 3.805 1.3125 3.125 C-1.21483235 2.46944881 -1.21483235 2.46944881 -3.6875 2.125 C-3.6875 3.445 -3.6875 4.765 -3.6875 6.125 C-2.3675 6.785 -1.0475 7.445 0.3125 8.125 C-2.0135857 8.50563221 -4.34805264 8.83769945 -6.6875 9.125 C-7.6875 8.125 -7.6875 8.125 -7.9375 5.1875 C-7.855 4.176875 -7.7725 3.16625 -7.6875 2.125 C-4.48369983 -0.01086678 -3.66810033 -0.10632175 0 0 Z " fill="#2377C3" transform="translate(110.6875,52.875)"/>
<path d="M0 0 C2.56364483 -0.10845031 5.12266279 -0.18749744 7.6875 -0.25 C8.40873047 -0.28351562 9.12996094 -0.31703125 9.87304688 -0.3515625 C13.63430548 -0.42026129 15.63471475 -0.2016679 19 1.65625 C21.49479537 4.57983832 21.53785348 5.96406152 21.3125 9.75 C21.24482422 11.22726563 21.24482422 11.22726563 21.17578125 12.734375 C21.11777344 13.48203125 21.05976562 14.2296875 21 15 C19.68 14.34 18.36 13.68 17 13 C17 12.34 17 11.68 17 11 C17.66 10.67 18.32 10.34 19 10 C19.65213292 7.97536745 19.65213292 7.97536745 20 6 C17.525 5.505 17.525 5.505 15 5 C15 4.34 15 3.68 15 3 C12.11584117 1.55792059 9.58278472 1.90605113 6.375 1.9375 C4.59222656 1.95103516 4.59222656 1.95103516 2.7734375 1.96484375 C1.40058594 1.98224609 1.40058594 1.98224609 0 2 C0 1.34 0 0.68 0 0 Z " fill="#43B1E3" transform="translate(14,45)"/>
<path d="M0 0 C2.97 0 5.94 0 9 0 C9 0.66 9 1.32 9 2 C8.34 2 7.68 2 7 2 C7 2.66 7 3.32 7 4 C7.66 4.33 8.32 4.66 9 5 C8.34 5 7.68 5 7 5 C5.79371992 7.33214148 4.8345262 9.49642139 4 12 C4.99 12.33 5.98 12.66 7 13 C6.01 13.33 5.02 13.66 4 14 C2.62437146 12.71034824 1.29233607 11.37310707 0 10 C0 9.34 0 8.68 0 8 C1.65 7.67 3.3 7.34 5 7 C5 6.34 5 5.68 5 5 C3.35 5 1.7 5 0 5 C1.32 4.67 2.64 4.34 4 4 C4 3.34 4 2.68 4 2 C2.68 2 1.36 2 0 2 C0 1.34 0 0.68 0 0 Z " fill="#398ECC" transform="translate(206,39)"/>
<path d="M0 0 C1 1 1 1 1.0625 4.0625 C1.041875 5.031875 1.02125 6.00125 1 7 C0.01 7 -0.98 7 -2 7 C-2.33 5.68 -2.66 4.36 -3 3 C-8.2953712 2.49567893 -10.86704506 3.71242221 -15 7 C-15.66 7.99 -16.32 8.98 -17 10 C-16.71956235 6.72822744 -15.96190858 4.94286287 -14.125 2.1875 C-9.61165452 -0.97184183 -5.36319145 -0.62990504 0 0 Z " fill="#3A3A37" transform="translate(135,47)"/>
<path d="M0 0 C1.258125 -0.04125 2.51625 -0.0825 3.8125 -0.125 C4.52019531 -0.14820312 5.22789063 -0.17140625 5.95703125 -0.1953125 C8 0 8 0 11 2 C10.67 3.32 10.34 4.64 10 6 C9.34 6 8.68 6 8 6 C6.33034549 6.31802943 4.66321482 6.64984951 3 7 C3 5.35 3 3.7 3 2 C2.34 1.67 1.68 1.34 1 1 C1 5.62 1 10.24 1 15 C0.67 15 0.34 15 0 15 C0 10.05 0 5.1 0 0 Z " fill="#7399C1" transform="translate(113,88)"/>
<path d="M0 0 C0.33 0.66 0.66 1.32 1 2 C1.66 1.34 2.32 0.68 3 0 C5.625 -0.125 5.625 -0.125 8 0 C8 1.32 8 2.64 8 4 C1.375 5.125 1.375 5.125 -2 4 C-2.33 8.29 -2.66 12.58 -3 17 C-3.33 17 -3.66 17 -4 17 C-4 12.38 -4 7.76 -4 3 C-4.66 3 -5.32 3 -6 3 C-6 2.34 -6 1.68 -6 1 C-3 0 -3 0 0 0 Z " fill="#363532" transform="translate(163,53)"/>
<path d="M0 0 C0.66 0 1.32 0 2 0 C2.66 3.63 3.32 7.26 4 11 C5.65 11.33 7.3 11.66 9 12 C9 12.66 9 13.32 9 14 C6.26752652 15.36623674 4.01801098 15.128426 1 15 C0 14 0 14 -0.09765625 10.83984375 C-0.08025391 8.90818359 -0.08025391 8.90818359 -0.0625 6.9375 C-0.05347656 5.64714844 -0.04445312 4.35679688 -0.03515625 3.02734375 C-0.02355469 2.02832031 -0.01195312 1.02929688 0 0 Z " fill="#0E0E0C" transform="translate(176,57)"/>
<path d="M0 0 C0 4.29 0 8.58 0 13 C-0.33 13 -0.66 13 -1 13 C-1.33 10.36 -1.66 7.72 -2 5 C-3.32 5 -4.64 5 -6 5 C-6 7.64 -6 10.28 -6 13 C-6.33 13 -6.66 13 -7 13 C-7 8.71 -7 4.42 -7 0 C-5 -1 -5 -1 0 0 Z " fill="#CBCECF" transform="translate(72,57)"/>
<path d="M0 0 C-0.33 0.66 -0.66 1.32 -1 2 C-2.010625 1.814375 -3.02125 1.62875 -4.0625 1.4375 C-10.67429792 0.57665108 -17.38564003 1.44019089 -24 2 C-24.66 1.01 -25.32 0.02 -26 -1 C-17.12193539 -2.91958154 -8.71150008 -2.28498363 0 0 Z " fill="#E3E4E3" transform="translate(165,77)"/>
<path d="M0 0 C1.65 0.33 3.3 0.66 5 1 C5 2.65 5 4.3 5 6 C0.545 7.485 0.545 7.485 -4 9 C-5 8 -5 8 -5.0625 4.4375 C-5.041875 3.303125 -5.02125 2.16875 -5 1 C-4.67 1.99 -4.34 2.98 -4 4 C-3.01 4 -2.02 4 -1 4 C-0.67 2.68 -0.34 1.36 0 0 Z " fill="#C5CDD1" transform="translate(44,55)"/>
<path d="M0 0 C0.33 0.66 0.66 1.32 1 2 C1.66 2 2.32 2 3 2 C3 9.92 3 17.84 3 26 C2.34 26 1.68 26 1 26 C0.67 17.42 0.34 8.84 0 0 Z " fill="#D9DEE0" transform="translate(80,44)"/>
<path d="M0 0 C0.33 0 0.66 0 1 0 C1.33 3.63 1.66 7.26 2 11 C0.32332046 10.10177882 -1.34117633 9.18078439 -3 8.25 C-4.3921875 7.48429687 -4.3921875 7.48429687 -5.8125 6.703125 C-6.8953125 5.86007813 -6.8953125 5.86007813 -8 5 C-8 3.68 -8 2.36 -8 1 C-6.35 1 -4.7 1 -3 1 C-2.67 1.99 -2.34 2.98 -2 4 C-1.34 4 -0.68 4 0 4 C0 2.68 0 1.36 0 0 Z " fill="#C0CAD0" transform="translate(115,54)"/>
<path d="M0 0 C3.63 0 7.26 0 11 0 C11 0.33 11 0.66 11 1 C9.02 1 7.04 1 5 1 C5 4.63 5 8.26 5 12 C3.68 11.67 2.36 11.34 1 11 C0.67 7.37 0.34 3.74 0 0 Z " fill="#1B87D4" transform="translate(17,46)"/>
<path d="M0 0 C0 7.59 0 15.18 0 23 C-0.66 23 -1.32 23 -2 23 C-2.66 15.74 -3.32 8.48 -4 1 C-2 0 -2 0 0 0 Z " fill="#DDDFDF" transform="translate(17,47)"/>
<path d="M0 0 C0.66 0 1.32 0 2 0 C2 0.66 2 1.32 2 2 C2.66 2 3.32 2 4 2 C4 2.99 4 3.98 4 5 C4.66 5.33 5.32 5.66 6 6 C1.71 6 -2.58 6 -7 6 C-7.33 4.68 -7.66 3.36 -8 2 C-5.36 2 -2.72 2 0 2 C0 1.34 0 0.68 0 0 Z " fill="#BABCBC" transform="translate(79,70)"/>
<path d="M0 0 C0.66 0.33 1.32 0.66 2 1 C2 1.66 2 2.32 2 3 C4.97 3 7.94 3 11 3 C10.67 4.32 10.34 5.64 10 7 C6.04 7 2.08 7 -2 7 C-1 2 -1 2 0 0 Z " fill="#C2C5C6" transform="translate(56,69)"/>
<path d="M0 0 C0 3.96 0 7.92 0 12 C-0.33 10.68 -0.66 9.36 -1 8 C-1.99 8 -2.98 8 -4 8 C-4 9.98 -4 11.96 -4 14 C-4.33 14 -4.66 14 -5 14 C-5 10.37 -5 6.74 -5 3 C-5.66 3 -6.32 3 -7 3 C-7 2.34 -7 1.68 -7 1 C-4.50935112 0.31292445 -2.62113708 0 0 0 Z " fill="#3EABE1" transform="translate(88,43)"/>
<path d="M0 0 C0 1.65 0 3.3 0 5 C-0.66 5 -1.32 5 -2 5 C-2.12375 4.360625 -2.2475 3.72125 -2.375 3.0625 C-2.58125 2.381875 -2.7875 1.70125 -3 1 C-3.66 0.67 -4.32 0.34 -5 0 C-5 1.98 -5 3.96 -5 6 C-5.66 6 -6.32 6 -7 6 C-7 4.35 -7 2.7 -7 1 C-7.99 1 -8.98 1 -10 1 C-10 2.65 -10 4.3 -10 6 C-10.66 6 -11.32 6 -12 6 C-12 3.69 -12 1.38 -12 -1 C-3.42857143 -2.42857143 -3.42857143 -2.42857143 0 0 Z " fill="#B8CCDA" transform="translate(225,56)"/>
<path d="M0 0 C0.66 0.66 1.32 1.32 2 2 C1.625 4.125 1.625 4.125 1 6 C0.67 5.67 0.34 5.34 0 5 C-0.99 6.485 -0.99 6.485 -2 8 C-2.33 6.35 -2.66 4.7 -3 3 C-4.32 3 -5.64 3 -7 3 C-7.33 3.99 -7.66 4.98 -8 6 C-9.32 6 -10.64 6 -12 6 C-11.6875 4.125 -11.6875 4.125 -11 2 C-6.93150591 -0.71232939 -4.83523216 -0.30699887 0 0 Z " fill="#262521" transform="translate(150,53)"/>
<path d="M0 0 C0.99 0.33 1.98 0.66 3 1 C3 2.98 3 4.96 3 7 C3.66 7 4.32 7 5 7 C5 5.35 5 3.7 5 2 C5.99 2 6.98 2 8 2 C8 3.65 8 5.3 8 7 C8.66 7.33 9.32 7.66 10 8 C8.20841511 8.02696365 6.41671527 8.04637917 4.625 8.0625 C3.62726563 8.07410156 2.62953125 8.08570313 1.6015625 8.09765625 C-1 8 -1 8 -3 7 C-3 5.35 -3 3.7 -3 2 C-2.01 2.33 -1.02 2.66 0 3 C0.33 3.99 0.66 4.98 1 6 C0.67 4.02 0.34 2.04 0 0 Z " fill="#306FB3" transform="translate(210,55)"/>
<path d="M0 0 C2.97 0.495 2.97 0.495 6 1 C6 1.66 6 2.32 6 3 C4.35 3.33 2.7 3.66 1 4 C2.98 6.97 2.98 6.97 5 10 C2.00519083 10.8723412 -0.63575911 11.10829766 -3.75 11.0625 C-4.54921875 11.05347656 -5.3484375 11.04445313 -6.171875 11.03515625 C-6.77515625 11.02355469 -7.3784375 11.01195312 -8 11 C-8 10.67 -8 10.34 -8 10 C-5.69 10 -3.38 10 -1 10 C-1.020625 8.72125 -1.04125 7.4425 -1.0625 6.125 C-1.125 2.25 -1.125 2.25 0 0 Z " fill="#CADAE2" transform="translate(205,43)"/>
<path d="M0 0 C4.82034262 0.41317222 6.90992611 2.38019915 10 6 C10 6.66 10 7.32 10 8 C7.36 8 4.72 8 2 8 C1.34 5.36 0.68 2.72 0 0 Z " fill="#214D89" transform="translate(91,64)"/>
<path d="M0 0 C0.66 1.98 1.32 3.96 2 6 C-2.95 6 -7.9 6 -13 6 C-5 0 -5 0 0 0 Z " fill="#D8D9D8" transform="translate(137,70)"/>
<path d="M0 0 C0.99 0 1.98 0 3 0 C3 3.3 3 6.6 3 10 C3.99 10 4.98 10 6 10 C6 10.66 6 11.32 6 12 C3.03 12 0.06 12 -3 12 C-3 11.34 -3 10.68 -3 10 C-2.01 10 -1.02 10 0 10 C0 6.7 0 3.4 0 0 Z " fill="#0E51A0" transform="translate(61,60)"/>
<path d="M0 0 C1.65 0.33 3.3 0.66 5 1 C5 2.65 5 4.3 5 6 C2.36 6.66 -0.28 7.32 -3 8 C-3.66 6.68 -4.32 5.36 -5 4 C-3.68 4 -2.36 4 -1 4 C-0.67 2.68 -0.34 1.36 0 0 Z " fill="#C3C4C4" transform="translate(143,55)"/>
<path d="M0 0 C2 2 2 2 2 6 C5.3 6 8.6 6 12 6 C12 6.33 12 6.66 12 7 C9.03 7 6.06 7 3 7 C3 7.66 3 8.32 3 9 C3.66 9 4.32 9 5 9 C3.63016497 12.16115776 3.0109362 12.9927092 0 15 C0 10.05 0 5.1 0 0 Z " fill="#E1E8EA" transform="translate(88,46)"/>
<path d="M0 0 C0.33 0 0.66 0 1 0 C1 4.62 1 9.24 1 14 C-0.98 14.33 -2.96 14.66 -5 15 C-4.01 14.67 -3.02 14.34 -2 14 C-2.350625 13.2575 -2.70125 12.515 -3.0625 11.75 C-4.08543156 8.74940076 -4.166566 7.87154708 -3 5 C-1.5 2.25 -1.5 2.25 0 0 Z " fill="#D6E0E7" transform="translate(126,89)"/>
<path d="M0 0 C1.32 0.33 2.64 0.66 4 1 C4 2.65 4 4.3 4 6 C-0.55426184 8.66590937 -3.73946963 9.31563182 -9 9 C-9.33 8.34 -9.66 7.68 -10 7 C-7.36 6.67 -4.72 6.34 -2 6 C-1.34 4.02 -0.68 2.04 0 0 Z " fill="#2367AB" transform="translate(229,58)"/>
<path d="M0 0 C1.485 0.99 1.485 0.99 3 2 C3 2.99 3 3.98 3 5 C8.61 5 14.22 5 20 5 C17.51680598 7.48319402 16.03333953 7.26011201 12.63867188 7.2734375 C11.95353516 7.26570313 11.26839844 7.25796875 10.5625 7.25 C9.88123047 7.25773437 9.19996094 7.26546875 8.49804688 7.2734375 C4.78590558 7.25889434 3.16410628 7.10940418 0 5 C-0.1875 2.375 -0.1875 2.375 0 0 Z " fill="#D9DBDA" transform="translate(13,71)"/>
<path d="M0 0 C0.99 0.495 0.99 0.495 2 1 C4.3329866 1.04022391 6.66706666 1.04320247 9 1 C9 2.65 9 4.3 9 6 C4.545 6.495 4.545 6.495 0 7 C0 4.69 0 2.38 0 0 Z " fill="#BCBDBC" transform="translate(175,70)"/>
<path d="M0 0 C1.26305335 5.07476794 2.27036084 9.72796354 2 15 C1.34 14.67 0.68 14.34 0 14 C-0.4140625 11.27734375 -0.4140625 11.27734375 -0.625 7.9375 C-0.69976562 6.83277344 -0.77453125 5.72804688 -0.8515625 4.58984375 C-0.90054688 3.73519531 -0.94953125 2.88054688 -1 2 C-2.98 2.66 -4.96 3.32 -7 4 C-7 5.98 -7 7.96 -7 10 C-7.66 10 -8.32 10 -9 10 C-9 7.03 -9 4.06 -9 1 C-5.94152152 0.45627049 -3.11227195 0 0 0 Z " fill="#E4E5E5" transform="translate(173,60)"/>
<path d="M0 0 C1.32 0.66 2.64 1.32 4 2 C4.36253776 7.43806647 4.36253776 7.43806647 2.75 9.9375 C1 11 1 11 -1.1875 10.6875 C-1.785625 10.460625 -2.38375 10.23375 -3 10 C-2.36982402 7.05917877 -1.33984264 4.67968527 0 2 C0 1.34 0 0.68 0 0 Z " fill="#CDD7DC" transform="translate(213,41)"/>
<path d="M0 0 C7.78846154 3.46153846 7.78846154 3.46153846 8.81640625 6.078125 C8.87699219 6.71234375 8.93757813 7.3465625 9 8 C8 9 8 9 5.4375 9.0625 C4.633125 9.041875 3.82875 9.02125 3 9 C2.01 6.03 1.02 3.06 0 0 Z " fill="#A9B1B9" transform="translate(103,61)"/>
<path d="M0 0 C0.99 0 1.98 0 3 0 C3.12375 1.134375 3.2475 2.26875 3.375 3.4375 C3.684375 5.2009375 3.684375 5.2009375 4 7 C4.66 7.33 5.32 7.66 6 8 C6 8.66 6 9.32 6 10 C3.03 10 0.06 10 -3 10 C-3 9.34 -3 8.68 -3 8 C-2.01 8 -1.02 8 0 8 C0 5.36 0 2.72 0 0 Z " fill="#174C90" transform="translate(73,62)"/>
<path d="M0 0 C0.33 0 0.66 0 1 0 C1 1.98 1 3.96 1 6 C0.67 6 0.34 6 0 6 C-0.89604368 12.04829486 -1.11269443 17.8894576 -1 24 C-1.66 24 -2.32 24 -3 24 C-4.41030314 17.26188501 -3.66561666 10.80977041 -3 4 C-2.01 3.67 -1.02 3.34 0 3 C0 2.01 0 1.02 0 0 Z " fill="#DDE3E5" transform="translate(192,55)"/>
<path d="M0 0 C1.32 0 2.64 0 4 0 C5.35439668 2.70879335 5.06501451 5.00933268 5 8 C4.34 8 3.68 8 3 8 C2.67 8.99 2.34 9.98 2 11 C2 10.01 2 9.02 2 8 C1.34 8 0.68 8 0 8 C0 5.36 0 2.72 0 0 Z " fill="#F3F4F3" transform="translate(66,62)"/>
<path d="M0 0 C0.33 0 0.66 0 1 0 C0.6875 3.375 0.6875 3.375 0 7 C-0.99 7.66 -1.98 8.32 -3 9 C-3.73343428 12.06556598 -3.73343428 12.06556598 -4 15 C-4.33 15 -4.66 15 -5 15 C-5 10.71 -5 6.42 -5 2 C-3.35 2 -1.7 2 0 2 C0 1.34 0 0.68 0 0 Z " fill="#BBBCBC" transform="translate(184,53)"/>
<path d="M0 0 C0.94875 0.04125 1.8975 0.0825 2.875 0.125 C3.205 1.775 3.535 3.425 3.875 5.125 C4.865 5.455 5.855 5.785 6.875 6.125 C4.29968185 5.60993637 1.77717444 5.09704984 -0.75 4.375 C-3.19659098 3.83731031 -3.19659098 3.83731031 -4.9375 5.5625 C-5.329375 6.078125 -5.72125 6.59375 -6.125 7.125 C-5.03177966 0.20127119 -5.03177966 0.20127119 0 0 Z " fill="#BEBFBE" transform="translate(129.125,48.875)"/>
<path d="M0 0 C1.8125 1.1875 1.8125 1.1875 3 3 C3.1875 5.6875 3.1875 5.6875 3 8 C2.67 7.34 2.34 6.68 2 6 C0.66961551 5.6550855 -0.66457061 5.32483418 -2 5 C-4.01526169 4.03112419 -6.01833966 3.0358679 -8 2 C-4.76746204 -0.15502531 -3.74849077 -0.46856135 0 0 Z " fill="#1C5AA4" transform="translate(113,61)"/>
<path d="M0 0 C0.66 0.33 1.32 0.66 2 1 C2 3.31 2 5.62 2 8 C-0.31 8 -2.62 8 -5 8 C-5 5.69 -5 3.38 -5 1 C-4.01 1.33 -3.02 1.66 -2 2 C-2 3.32 -2 4.64 -2 6 C-1.34 6 -0.68 6 0 6 C0 4.02 0 2.04 0 0 Z " fill="#1F62AB" transform="translate(225,55)"/>
<path d="M0 0 C0.99 0.495 0.99 0.495 2 1 C2 1.99 2 2.98 2 4 C2.66 4 3.32 4 4 4 C4 3.01 4 2.02 4 1 C4.66 1 5.32 1 6 1 C5.67 3.64 5.34 6.28 5 9 C3.68 9 2.36 9 1 9 C0.67 6.03 0.34 3.06 0 0 Z " fill="#215292" transform="translate(132,94)"/>
<path d="M0 0 C1.010625 0.639375 2.02125 1.27875 3.0625 1.9375 C6.75219924 4.06848956 9.77860255 4.65539613 14 5 C13.67 5.66 13.34 6.32 13 7 C6.49105915 7.37551582 6.49105915 7.37551582 3.875 5.375 C3.25625 4.92125 2.6375 4.4675 2 4 C-0.73398135 4.70957237 -0.73398135 4.70957237 -3 6 C-1.125 1.125 -1.125 1.125 0 0 Z " fill="#DEDFDE" transform="translate(117,71)"/>
<path d="M0 0 C2.97 0 5.94 0 9 0 C9 0.66 9 1.32 9 2 C7.02678947 3.3726682 5.02456848 4.70427617 3 6 C2.34 6.66 1.68 7.32 1 8 C0.34 7.34 -0.32 6.68 -1 6 C-0.01 4.68 0.98 3.36 2 2 C1.34 2 0.68 2 0 2 C0 1.34 0 0.68 0 0 Z " fill="#398CCC" transform="translate(91,53)"/>
<path d="M0 0 C0 1.98 0 3.96 0 6 C0.99 6 1.98 6 3 6 C3 6.66 3 7.32 3 8 C0.03 8 -2.94 8 -6 8 C-6 7.34 -6 6.68 -6 6 C-5.01 6 -4.02 6 -3 6 C-3 4.35 -3 2.7 -3 1 C-1 0 -1 0 0 0 Z " fill="#1B4B8B" transform="translate(87,64)"/>
<path d="M0 0 C0.99 0 1.98 0 3 0 C3.0825 0.598125 3.165 1.19625 3.25 1.8125 C4.20455872 4.5966296 5.57132271 5.43311142 8 7 C7 8 7 8 4.5625 8.1875 C2 8 2 8 0 6 C-0.125 2.875 -0.125 2.875 0 0 Z " fill="#0B0B09" transform="translate(138,64)"/>
<path d="M0 0 C0.66 0.33 1.32 0.66 2 1 C2.625 3.5625 2.625 3.5625 3 6 C2.01 6.33 1.02 6.66 0 7 C-0.33 9.64 -0.66 12.28 -1 15 C-1.99 14.67 -2.98 14.34 -4 14 C-3.34 14 -2.68 14 -2 14 C-2 9.71 -2 5.42 -2 1 C-1.34 0.67 -0.68 0.34 0 0 Z " fill="#497AB1" transform="translate(131,89)"/>
<path d="M0 0 C5.28 0 10.56 0 16 0 C15.67 0.99 15.34 1.98 15 3 C10.38 3 5.76 3 1 3 C0.67 2.01 0.34 1.02 0 0 Z " fill="#9DA3A8" transform="translate(193,75)"/>
<path d="M0 0 C3.53790403 3.69172595 3.59115883 7.09390595 4 12 C3.401875 11.773125 2.80375 11.54625 2.1875 11.3125 C1.465625 11.209375 0.74375 11.10625 0 11 C-1.77190909 12.35444301 -1.77190909 12.35444301 -3 14 C-3.99 13.67 -4.98 13.34 -6 13 C-5.195625 12.34 -4.39125 11.68 -3.5625 11 C-0.24851076 7.12020772 -0.25422975 4.99985175 0 0 Z " fill="#BFC7CC" transform="translate(36,62)"/>
<path d="M0 0 C1.67542976 0.28604898 3.34385343 0.61781233 5 1 C4.67 2.65 4.34 4.3 4 6 C2.35 6 0.7 6 -1 6 C-1.042721 4.33388095 -1.04063832 2.66617115 -1 1 C-0.67 0.67 -0.34 0.34 0 0 Z " fill="#E1E5E7" transform="translate(24,64)"/>
<path d="M0 0 C2.67927341 4.01891012 2.15601248 6.24161923 2 11 C0.68 10.34 -0.64 9.68 -2 9 C-2.25 3.375 -2.25 3.375 0 0 Z " fill="#EDEEED" transform="translate(57,59)"/>
<path d="M0 0 C3.55780196 0.60990891 6.6828589 1.5783681 10 3 C10 3.66 10 4.32 10 5 C7.56013011 4.52558085 5.1856158 4.05833639 2.8125 3.3125 C2.214375 3.209375 1.61625 3.10625 1 3 C-1.76223278 5.76223278 -1.57856291 8.20706617 -2 12 C-2.33 12 -2.66 12 -3 12 C-3.36923077 4.61538462 -3.36923077 4.61538462 -1.5 1.5 C-1.005 1.005 -0.51 0.51 0 0 Z " fill="#D1D3D2" transform="translate(126,52)"/>
<path d="M0 0 C1.32 0 2.64 0 4 0 C4.042721 1.66611905 4.04063832 3.33382885 4 5 C3 6 3 6 0.4375 6.0625 C-0.7690625 6.0315625 -0.7690625 6.0315625 -2 6 C-1.125 1.125 -1.125 1.125 0 0 Z " fill="#BDBFBE" transform="translate(144,63)"/>
<path d="M0 0 C0.33 1.32 0.66 2.64 1 4 C-2 4 -5 4 -8 4 C-8 3.01 -8 2.02 -8 1 C-5.29120665 -0.35439668 -2.99066732 -0.06501451 0 0 Z " fill="#366EAE" transform="translate(110,88)"/>
<path d="M0 0 C0.66 0 1.32 0 2 0 C2.33 1.98 2.66 3.96 3 6 C3.99 6 4.98 6 6 6 C6 6.66 6 7.32 6 8 C4.34385343 8.38218767 2.67542976 8.71395102 1 9 C0 8 0 8 -0.09765625 6.15234375 C-0.06510417 4.1015625 -0.03255208 2.05078125 0 0 Z " fill="#0B0A09" transform="translate(149,63)"/>
<path d="M0 0 C1.4606285 2.64738916 2 3.89448334 2 7 C1.01 7 0.02 7 -1 7 C-1.28875 6.360625 -1.5775 5.72125 -1.875 5.0625 C-2.82823451 2.84793921 -2.82823451 2.84793921 -5 2 C-5 3.65 -5 5.3 -5 7 C-5.33 7 -5.66 7 -6 7 C-6 5.02 -6 3.04 -6 1 C-3.92446352 0.4465236 -2.15634036 0 0 0 Z " fill="#3C6499" transform="translate(122,96)"/>
<path d="M0 0 C5.28 0.33 10.56 0.66 16 1 C13.39813892 3.60186108 12.17645645 3.29810177 8.5625 3.3125 C7.11037109 3.33763672 7.11037109 3.33763672 5.62890625 3.36328125 C3 3 3 3 0 0 Z " fill="#1F579A" transform="translate(193,68)"/>
<path d="M0 0 C0 1.65 0 3.3 0 5 C-1.65 5.33 -3.3 5.66 -5 6 C-5.33 4.68 -5.66 3.36 -6 2 C-3 0 -3 0 0 0 Z " fill="#BFC9CF" transform="translate(49,63)"/>
<path d="M0 0 C1.22589844 0.01353516 1.22589844 0.01353516 2.4765625 0.02734375 C3.41628906 0.04474609 3.41628906 0.04474609 4.375 0.0625 C4.375 1.7125 4.375 3.3625 4.375 5.0625 C3.715 5.0625 3.055 5.0625 2.375 5.0625 C2.045 4.4025 1.715 3.7425 1.375 3.0625 C-1.15233235 2.40694881 -1.15233235 2.40694881 -3.625 2.0625 C-3.955 3.0525 -4.285 4.0425 -4.625 5.0625 C-4.625 4.0725 -4.625 3.0825 -4.625 2.0625 C-5.285 1.7325 -5.945 1.4025 -6.625 1.0625 C-4.21954362 -0.14022819 -2.67503047 -0.03821472 0 0 Z " fill="#398ECD" transform="translate(110.625,52.9375)"/>
<path d="M0 0 C2 0.1875 2 0.1875 4 1 C4.66 1.99 5.32 2.98 6 4 C4.34385343 4.38218767 2.67542976 4.71395102 1 5 C0.67 4.67 0.34 4.34 0 4 C-0.33 5.98 -0.66 7.96 -1 10 C-1.33 10 -1.66 10 -2 10 C-2.1953125 3.9453125 -2.1953125 3.9453125 -2 2 C-1.34 1.34 -0.68 0.68 0 0 Z " fill="#2D69AB" transform="translate(89,60)"/>
<path d="M0 0 C2.0625 0.4375 2.0625 0.4375 4 1 C4 3.31 4 5.62 4 8 C3.67 7.34 3.34 6.68 3 6 C1.68 6 0.36 6 -1 6 C-1.042721 4.33388095 -1.04063832 2.66617115 -1 1 C-0.67 0.67 -0.34 0.34 0 0 Z " fill="#1960AE" transform="translate(32,60)"/>
<path d="M0 0 C1.32 0.33 2.64 0.66 4 1 C5.60725635 4.21451269 5.05748185 7.43612536 5 11 C4.67 11 4.34 11 4 11 C4 8.69 4 6.38 4 4 C3.01 4 2.02 4 1 4 C1 6.64 1 9.28 1 12 C0.67 12 0.34 12 0 12 C0 8.04 0 4.08 0 0 Z " fill="#3975B3" transform="translate(72,58)"/>
<path d="M0 0 C6.15234375 -0.09765625 6.15234375 -0.09765625 8 0 C9 1 9 1 9.0625 4.0625 C9.041875 5.031875 9.02125 6.00125 9 7 C8.01 7 7.02 7 6 7 C5.7525 6.21625 5.505 5.4325 5.25 4.625 C3.84610901 1.67682892 2.99324263 1.0975223 0 0 Z " fill="#2C2B28" transform="translate(127,47)"/>
<path d="M0 0 C0.99 0.495 0.99 0.495 2 1 C2 1.66 2 2.32 2 3 C6.455 3.99 6.455 3.99 11 5 C10.67 5.99 10.34 6.98 10 8 C7.8125 8.375 7.8125 8.375 5 8 C2.91167347 6.17130326 1.61663209 4.30947441 0 2 C0 1.34 0 0.68 0 0 Z " fill="#9FA2A4" transform="translate(119,67)"/>
<path d="M0 0 C1.2065625 0.0309375 1.2065625 0.0309375 2.4375 0.0625 C2.7675 1.7125 3.0975 3.3625 3.4375 5.0625 C2.4475 5.5575 2.4475 5.5575 1.4375 6.0625 C1.31375 5.423125 1.19 4.78375 1.0625 4.125 C0.85625 3.444375 0.65 2.76375 0.4375 2.0625 C-0.2225 1.7325 -0.8825 1.4025 -1.5625 1.0625 C-1.5625 2.7125 -1.5625 4.3625 -1.5625 6.0625 C-0.9025 6.3925 -0.2425 6.7225 0.4375 7.0625 C-0.8825 6.7325 -2.2025 6.4025 -3.5625 6.0625 C-3.605221 4.39638095 -3.60313832 2.72867115 -3.5625 1.0625 C-2.5625 0.0625 -2.5625 0.0625 0 0 Z " fill="#BBCFDD" transform="translate(208.5625,55.9375)"/>
<path d="M0 0 C2.12472576 -0.05386629 4.24983652 -0.09273071 6.375 -0.125 C7.55835938 -0.14820312 8.74171875 -0.17140625 9.9609375 -0.1953125 C13 0 13 0 15 2 C14 3 14 3 10.3125 3.1875 C6.5586147 3.15368121 3.50557404 2.40222961 0 1 C0 0.67 0 0.34 0 0 Z " fill="#B3B5B4" transform="translate(214,78)"/>
<path d="M0 0 C0.33 0 0.66 0 1 0 C1.25 3.3125 1.25 3.3125 1 7 C-0.6875 8.9375 -0.6875 8.9375 -3 10 C-5.75 10.1875 -5.75 10.1875 -8 10 C-8 9.34 -8 8.68 -8 8 C-4.535 7.505 -4.535 7.505 -1 7 C-0.67 4.69 -0.34 2.38 0 0 Z " fill="#E6E7E7" transform="translate(185,69)"/>
<path d="M0 0 C0.33 0.99 0.66 1.98 1 3 C1.99 3 2.98 3 4 3 C4.33 2.01 4.66 1.02 5 0 C5 1.65 5 3.3 5 5 C5.66 5.33 6.32 5.66 7 6 C5.02 6.66 3.04 7.32 1 8 C0 7 0 7 -0.0625 3.4375 C-0.041875 2.303125 -0.02125 1.16875 0 0 Z " fill="#B2C4D0" transform="translate(39,56)"/>
<path d="M0 0 C0.94875 0.04125 1.8975 0.0825 2.875 0.125 C2.875 0.785 2.875 1.445 2.875 2.125 C0.565 2.455 -1.745 2.785 -4.125 3.125 C-4.125 6.095 -4.125 9.065 -4.125 12.125 C-4.455 12.125 -4.785 12.125 -5.125 12.125 C-5.17895478 10.50036158 -5.21777195 8.87521459 -5.25 7.25 C-5.27320313 6.34507813 -5.29640625 5.44015625 -5.3203125 4.5078125 C-5.00242565 0.62959295 -3.76234891 0.15049396 0 0 Z " fill="#959594" transform="translate(168.125,56.875)"/>
<path d="M0 0 C1.32 0.33 2.64 0.66 4 1 C4 3.31 4 5.62 4 8 C3.01 8 2.02 8 1 8 C0.67 5.36 0.34 2.72 0 0 Z " fill="#114D98" transform="translate(18,61)"/>
<path d="M0 0 C3.63 0 7.26 0 11 0 C11 0.33 11 0.66 11 1 C9.02 1 7.04 1 5 1 C5 2.32 5 3.64 5 5 C3.68 4.67 2.36 4.34 1 4 C0.67 2.68 0.34 1.36 0 0 Z " fill="#21A8E6" transform="translate(17,46)"/>
<path d="M0 0 C-0.33 0.99 -0.66 1.98 -1 3 C-5.51617599 3.07654536 -9.59085217 3.10228696 -14 2 C-14 1.67 -14 1.34 -14 1 C-9.27685687 0.22887459 -4.78478822 -0.09764874 0 0 Z " fill="#8197AE" transform="translate(209,65)"/>
<path d="M0 0 C0.33 0.66 0.66 1.32 1 2 C1.66 2 2.32 2 3 2 C3 6.62 3 11.24 3 16 C2.67 16 2.34 16 2 16 C1.66104344 14.27192682 1.32908475 12.54248026 1 10.8125 C0.814375 9.84957031 0.62875 8.88664062 0.4375 7.89453125 C0.03122388 5.2065794 -0.07933572 2.71228981 0 0 Z " fill="#D2D4D3" transform="translate(156,54)"/>
<path d="M0 0 C1.65 0 3.3 0 5 0 C5.33 1.98 5.66 3.96 6 6 C5.01 6.495 5.01 6.495 4 7 C4 6.34 4 5.68 4 5 C3.01 5 2.02 5 1 5 C0.67 3.35 0.34 1.7 0 0 Z " fill="#1E6AB7" transform="translate(193,57)"/>
<path d="M0 0 C1 3 1 3 0.25 5.5625 C-1 8 -1 8 -4 10 C-3.38461538 3.47692308 -3.38461538 3.47692308 -1.4375 1.0625 C-0.7259375 0.5365625 -0.7259375 0.5365625 0 0 Z " fill="#0C0C09" transform="translate(122,51)"/>
<path d="M0 0 C1.32 0.66 2.64 1.32 4 2 C3.01 2.33 2.02 2.66 1 3 C0.67 3.99 0.34 4.98 0 6 C-1.32 6 -2.64 6 -4 6 C-3.6875 4.125 -3.6875 4.125 -3 2 C-2.01 1.34 -1.02 0.68 0 0 Z " fill="#3B3B38" transform="translate(142,53)"/>
<path d="M0 0 C1.32 0.33 2.64 0.66 4 1 C3.67 2.65 3.34 4.3 3 6 C1.02 6.33 -0.96 6.66 -3 7 C-2.67 6.34 -2.34 5.68 -2 5 C-1.34 5 -0.68 5 0 5 C0 3.35 0 1.7 0 0 Z " fill="#248DD5" transform="translate(30,50)"/>
<path d="M0 0 C2.97 0 5.94 0 9 0 C9 0.66 9 1.32 9 2 C8.34 2 7.68 2 7 2 C7 2.66 7 3.32 7 4 C6.01 4 5.02 4 4 4 C4 3.34 4 2.68 4 2 C2.68 2 1.36 2 0 2 C0 1.34 0 0.68 0 0 Z " fill="#51B6E5" transform="translate(206,39)"/>
<path d="M0 0 C0.99 0 1.98 0 3 0 C3.66 1.98 4.32 3.96 5 6 C3.02 6 1.04 6 -1 6 C-0.67 4.02 -0.34 2.04 0 0 Z " fill="#D5D9DB" transform="translate(67,70)"/>
<path d="M0 0 C0.66 0 1.32 0 2 0 C2 0.66 2 1.32 2 2 C2.66 2 3.32 2 4 2 C4 2.99 4 3.98 4 5 C4.66 5.33 5.32 5.66 6 6 C3.69 6 1.38 6 -1 6 C-0.67 4.02 -0.34 2.04 0 0 Z " fill="#C6CACC" transform="translate(79,70)"/>
<path d="M0 0 C2.375 0.3125 2.375 0.3125 5 1 C5.66 1.99 6.32 2.98 7 4 C5.35 4.66 3.7 5.32 2 6 C1.34 4.02 0.68 2.04 0 0 Z " fill="#1A539A" transform="translate(91,64)"/>
<path d="M0 0 C6.75 0.875 6.75 0.875 9 2 C7.8125 3.5625 7.8125 3.5625 6 5 C3.3125 4.6875 3.3125 4.6875 1 4 C0.67 2.68 0.34 1.36 0 0 Z " fill="#A8AAA9" transform="translate(138,70)"/>
<path d="M0 0 C1.98 0.66 3.96 1.32 6 2 C6 2.66 6 3.32 6 4 C3.03 4 0.06 4 -3 4 C-3 3.34 -3 2.68 -3 2 C-2.01 2 -1.02 2 0 2 C0 1.34 0 0.68 0 0 Z " fill="#214D89" transform="translate(61,68)"/>
<path d="M0 0 C0.99 0.33 1.98 0.66 3 1 C2.6875 2.9375 2.6875 2.9375 2 5 C1.01 5.33 0.02 5.66 -1 6 C-1.99 5.34 -2.98 4.68 -4 4 C-2.68 2.68 -1.36 1.36 0 0 Z " fill="#174A8C" transform="translate(32,65)"/>
<path d="M0 0 C-3.465 1.485 -3.465 1.485 -7 3 C-7 4.98 -7 6.96 -7 9 C-7.66 9 -8.32 9 -9 9 C-9 6.03 -9 3.06 -9 0 C-3.375 -1.125 -3.375 -1.125 0 0 Z " fill="#DADBDA" transform="translate(173,61)"/>
<path d="M0 0 C0.66 0.33 1.32 0.66 2 1 C1.34 3.64 0.68 6.28 0 9 C-1.5625 7.75 -1.5625 7.75 -3 6 C-2.72963853 3.02602384 -2.14553974 2.14553974 0 0 Z " fill="#B9C3CB" transform="translate(96,56)"/>
<path d="M0 0 C0.99 0 1.98 0 3 0 C3.33 3.3 3.66 6.6 4 10 C3.01 8.68 2.02 7.36 1 6 C0.67 5.67 0.34 5.34 0 5 C-0.04063832 3.33382885 -0.042721 1.66611905 0 0 Z " fill="#2988CF" transform="translate(84,51)"/>
<path d="M0 0 C0.66 0.33 1.32 0.66 2 1 C1.34 2.32 0.68 3.64 0 5 C-2.64 5 -5.28 5 -8 5 C-5.45378681 2.99940392 -3.01962385 1.20784954 0 0 Z " fill="#BDBFBE" transform="translate(132,71)"/>
<path d="M0 0 C1.32 0 2.64 0 4 0 C4.66 1.65 5.32 3.3 6 5 C3 5 3 5 0 4 C0 2.68 0 1.36 0 0 Z " fill="#2462A9" transform="translate(200,58)"/>
<path d="M0 0 C0.33 0.99 0.66 1.98 1 3 C-5.93 2.505 -5.93 2.505 -13 2 C-13 1.67 -13 1.34 -13 1 C-8.62426048 0.40667939 -4.42471556 -0.13827236 0 0 Z " fill="#5EBCE5" transform="translate(226,51)"/>
<path d="M0 0 C0.33 0.66 0.66 1.32 1 2 C-0.25 4 -0.25 4 -2 6 C-3.32 6 -4.64 6 -6 6 C-6 5.01 -6 4.02 -6 3 C-5.195625 2.690625 -4.39125 2.38125 -3.5625 2.0625 C-1.10919595 1.23664655 -1.10919595 1.23664655 0 0 Z " fill="#A2ABB2" transform="translate(35,68)"/>
<path d="M0 0 C-0.875 3.875 -0.875 3.875 -2 5 C-3.99958364 5.04080783 -6.00045254 5.04254356 -8 5 C-3.375 0 -3.375 0 0 0 Z " fill="#154588" transform="translate(115,67)"/>
<path d="M0 0 C2.5625 2.25 2.5625 2.25 5 5 C4.8125 7.3125 4.8125 7.3125 4 9 C3.67 7.68 3.34 6.36 3 5 C2.01 5 1.02 5 0 5 C0 3.35 0 1.7 0 0 Z " fill="#A3ABB2" transform="translate(88,63)"/>
<path d="M0 0 C-0.598125 0.2475 -1.19625 0.495 -1.8125 0.75 C-4.28647521 2.16370012 -5.43370255 3.65055383 -7 6 C-7 4.68 -7 3.36 -7 2 C-7.66 1.67 -8.32 1.34 -9 1 C-5.57367167 -0.61798838 -3.61944899 -1.34053666 0 0 Z " fill="#383835" transform="translate(148,62)"/>
<path d="M0 0 C0.33 0 0.66 0 1 0 C2.35384615 6.4 2.35384615 6.4 0.5625 9.4375 C0.046875 9.953125 -0.46875 10.46875 -1 11 C-2.25 3.375 -2.25 3.375 0 0 Z " fill="#E2E5E6" transform="translate(38,58)"/>
<path d="M0 0 C0.99 0.33 1.98 0.66 3 1 C3 1.66 3 2.32 3 3 C3.99 3.33 4.98 3.66 6 4 C6 4.33 6 4.66 6 5 C3.36 5 0.72 5 -2 5 C-1.34 3.35 -0.68 1.7 0 0 Z " fill="#0E3F83" transform="translate(18,66)"/>
<path d="M0 0 C1.32 0 2.64 0 4 0 C5.35439668 2.70879335 5.06501451 5.00933268 5 8 C4.67 8 4.34 8 4 8 C3.67 6.35 3.34 4.7 3 3 C2.01 3.66 1.02 4.32 0 5 C0 3.35 0 1.7 0 0 Z " fill="#E9EAE9" transform="translate(66,62)"/>
<path d="M0 0 C0.33 0 0.66 0 1 0 C1 3.63 1 7.26 1 11 C-0.32 10.34 -1.64 9.68 -3 9 C-3 8.34 -3 7.68 -3 7 C-2.34 6.67 -1.68 6.34 -1 6 C-0.34227572 2.97065509 -0.34227572 2.97065509 0 0 Z " fill="#A3C1D3" transform="translate(34,49)"/>
<path d="M0 0 C2.97 0.495 2.97 0.495 6 1 C6 1.66 6 2.32 6 3 C5.195625 3.12375 4.39125 3.2475 3.5625 3.375 C2.2940625 3.684375 2.2940625 3.684375 1 4 C0.67 4.66 0.34 5.32 0 6 C0 4.02 0 2.04 0 0 Z " fill="#B5C9D7" transform="translate(205,43)"/>
<path d="M0 0 C2.5654594 2.5654594 2.54046087 4.47686668 3 8 C2.01 8.33 1.02 8.66 0 9 C0 6.03 0 3.06 0 0 Z " fill="#D9E1E7" transform="translate(130,94)"/>
<path d="M0 0 C1.98 0 3.96 0 6 0 C6 0.99 6 1.98 6 3 C4.02 3 2.04 3 0 3 C0 2.01 0 1.02 0 0 Z " fill="#B3B4B4" transform="translate(158,72)"/>
<path d="M0 0 C0.66 0.99 1.32 1.98 2 3 C-4.0546875 3.1953125 -4.0546875 3.1953125 -6 3 C-6.66 2.34 -7.32 1.68 -8 1 C-5.01726077 0.00575359 -3.10494126 -0.31845551 0 0 Z " fill="#1E68B4" transform="translate(113,61)"/>
<path d="M0 0 C0.33 0 0.66 0 1 0 C1.33 3.63 1.66 7.26 2 11 C1.01 10.34 0.02 9.68 -1 9 C-0.67 6.03 -0.34 3.06 0 0 Z " fill="#D6DEE2" transform="translate(115,54)"/>
<path d="M0 0 C2.475 0.495 2.475 0.495 5 1 C4.01 1.33 3.02 1.66 2 2 C2 3.65 2 5.3 2 7 C1.34 7 0.68 7 0 7 C0 4.69 0 2.38 0 0 Z " fill="#ACC7DA" transform="translate(213,55)"/>
</svg>
